<?xml version="1.0" standalone="no"?>
<!DOCTYPE svg PUBLIC "-//W3C//DTD SVG 20010904//EN"
 "http://www.w3.org/TR/2001/REC-SVG-20010904/DTD/svg10.dtd">
<svg version="1.0" xmlns="http://www.w3.org/2000/svg"
 width="128.000000pt" height="128.000000pt" viewBox="0 0 128.000000 128.000000"
 preserveAspectRatio="xMidYMid meet">

<g transform="translate(0.000000,128.000000) scale(0.100000,-0.100000)"
fill="#000000" stroke="none">
<path d="M1074 1218 c-35 -33 -64 -66 -64 -73 0 -6 -11 -22 -24 -34 l-25 -23
-34 26 c-19 14 -41 26 -49 26 -8 0 -54 -27 -101 -61 l-87 -60 0 -95 c0 -91 -1
-94 -23 -94 -39 0 -47 -18 -47 -112 l0 -88 -30 0 c-16 0 -30 4 -30 9 0 5 -7
17 -16 25 -23 24 -385 24 -408 0 -9 -8 -16 -20 -16 -25 0 -5 -22 -9 -48 -9
-26 0 -53 -5 -60 -12 -17 -17 -17 -589 0 -606 19 -19 1241 -17 1257 2 8 9 11
82 9 242 -3 196 -5 229 -18 229 -9 0 -16 -11 -18 -27 l-3 -28 -185 0 -184 0 0
85 0 85 133 0 c186 0 235 -7 239 -34 2 -11 10 -21 18 -21 12 0 15 22 18 129 2
86 -1 133 -9 142 -9 10 -40 14 -125 14 l-113 0 30 49 c29 46 30 50 15 78 -8
16 -22 35 -31 43 -14 12 -14 15 6 37 13 12 28 23 34 23 17 0 145 135 145 153
0 8 -9 26 -21 41 -33 42 -62 34 -135 -36z m113 6 c4 -10 -12 -34 -48 -70 -50
-51 -54 -53 -71 -37 -18 16 -17 19 34 70 54 55 74 64 85 37z m-280 -146 l23
-21 -35 -39 c-38 -41 -40 -49 -25 -79 16 -29 59 -24 97 13 l33 32 25 -24 c14
-13 24 -29 21 -36 -2 -6 -26 -42 -52 -78 l-48 -66 -107 0 -107 0 -4 103 c-4
84 -2 105 11 119 21 23 124 96 135 97 6 1 20 -9 33 -21z m77 -59 c-37 -37 -72
-65 -77 -62 -5 3 21 36 59 74 37 37 72 65 77 62 5 -3 -21 -36 -59 -74z m-278
-254 c22 -24 28 -25 137 -25 108 0 115 1 137 25 13 14 32 25 42 25 17 0 19 -7
16 -77 l-3 -78 -187 -3 -188 -2 0 80 c0 88 7 96 46 55z m534 -55 l0 -80 -85 0
-85 0 0 80 0 80 85 0 85 0 0 -80z m-720 -93 c0 -16 -9 -26 -28 -33 -34 -13
-42 -41 -42 -145 0 -55 -3 -69 -15 -69 -12 0 -15 17 -15 89 0 85 -1 91 -26
110 -47 37 -96 22 -120 -36 -17 -39 -23 -37 -39 10 -7 24 -19 35 -42 42 -25 7
-33 15 -33 32 l0 23 180 0 180 0 0 -23z m-389 -41 c11 -14 29 -26 41 -28 14
-2 24 -13 29 -32 5 -16 14 -33 21 -37 35 -23 81 2 90 46 2 15 11 20 33 20 29
0 30 -1 33 -57 l3 -58 -171 0 -170 0 0 85 0 85 36 0 c26 0 41 -7 55 -24z m694
-61 l0 -80 -165 0 -165 0 -3 53 c-3 48 -1 53 22 62 14 5 31 19 38 30 12 19 21
20 143 18 l130 -3 0 -80z m-617 -197 l3 -78 -86 0 -85 0 0 80 0 81 83 -3 82
-3 3 -77z m182 49 c13 -27 20 -32 50 -32 31 0 36 4 45 33 9 32 10 32 72 32
l63 0 0 -80 0 -79 -122 -3 c-108 -3 -123 -5 -126 -20 -2 -13 3 -18 17 -18 20
0 21 -6 21 -80 l0 -80 -185 0 -185 0 0 80 0 80 133 0 c74 0 137 3 140 7 13 12
-15 33 -44 33 l-29 0 0 73 c0 41 3 77 7 80 3 4 34 7 67 7 59 0 62 -2 76 -33z
m648 -49 l3 -78 -191 0 -190 0 0 80 0 80 188 -2 187 -3 3 -77z m202 2 l0 -80
-85 0 -85 0 0 73 c0 41 3 77 7 80 3 4 42 7 85 7 l78 0 0 -80z m-410 -200 l0
-80 -190 0 -190 0 0 80 0 80 190 0 190 0 0 -80z m410 0 l0 -80 -185 0 -185 0
0 80 0 80 185 0 185 0 0 -80z"/>
</g>
</svg>
