<?xml version="1.0" standalone="no"?>
<!DOCTYPE svg PUBLIC "-//W3C//DTD SVG 20010904//EN"
 "http://www.w3.org/TR/2001/REC-SVG-20010904/DTD/svg10.dtd">
<svg version="1.0" xmlns="http://www.w3.org/2000/svg"
 width="128.000000pt" height="128.000000pt" viewBox="0 0 128.000000 128.000000"
 preserveAspectRatio="xMidYMid meet">

<g transform="translate(0.000000,128.000000) scale(0.100000,-0.100000)"
fill="#000000" stroke="none">
<path d="M1135 1181 l-25 -41 -100 0 c-82 0 -100 -3 -100 -15 0 -12 17 -15 90
-15 l90 0 0 -45 c0 -40 -3 -45 -22 -45 -12 0 -35 12 -50 27 -21 20 -31 24 -40
15 -8 -8 -8 -15 1 -25 9 -12 6 -16 -20 -21 -17 -3 -58 -6 -90 -6 -56 0 -59 1
-59 24 0 40 -19 40 -35 2 -10 -23 -22 -36 -34 -36 -39 0 -61 -33 -88 -133 -18
-68 -29 -95 -37 -87 -5 5 -29 10 -51 10 -23 0 -44 2 -47 5 -6 7 54 232 71 263
20 37 70 52 176 52 80 0 95 3 95 16 0 14 -16 15 -125 12 l-125 -3 -31 -31
c-26 -27 -38 -55 -69 -170 -36 -136 -37 -139 -66 -142 -38 -5 -54 -19 -54 -48
l0 -24 -143 0 c-155 0 -167 -4 -167 -52 0 -22 -5 -28 -21 -28 -11 0 -29 -5
-40 -10 -17 -10 -19 -22 -19 -123 0 -75 4 -117 12 -125 7 -7 40 -12 80 -12 57
0 69 -3 78 -20 10 -18 8 -20 -22 -20 -72 0 -148 -68 -148 -132 0 -44 29 -98
64 -119 29 -17 55 -19 339 -19 334 0 343 1 386 56 28 35 28 107 1 152 -22 36
-72 62 -121 62 -24 0 -30 3 -25 16 3 9 6 18 6 20 0 2 16 4 35 4 24 0 37 6 45
19 15 29 12 147 -4 180 -14 25 -11 43 26 207 22 98 43 182 47 185 3 4 52 10
109 14 l102 7 0 -53 c0 -59 30 -133 61 -150 15 -8 19 -21 19 -68 0 -90 11
-151 26 -151 11 0 14 21 14 91 0 83 2 90 18 84 41 -17 52 -17 52 -1 0 9 -16
24 -35 33 l-35 17 0 153 c0 137 2 157 22 198 12 25 27 45 33 45 6 0 22 -22 35
-50 l23 -50 -17 -302 c-9 -167 -16 -318 -16 -335 0 -31 -2 -33 -35 -33 -34 0
-34 1 -41 50 -9 68 -28 59 -34 -16 -8 -83 -104 -272 -153 -303 -51 -31 -62
-48 -47 -66 10 -12 38 -15 132 -15 185 0 208 21 208 187 0 54 9 265 21 470
l21 371 -34 64 c-27 51 -38 64 -60 66 -22 3 -32 -4 -53 -37z m-45 -283 c0 -77
-1 -81 -17 -65 -11 11 -18 38 -21 82 -4 61 -3 65 17 65 20 0 21 -5 21 -82z
m-366 -78 c-41 -178 -38 -170 -57 -134 -15 29 -14 36 13 135 36 132 39 139 60
139 15 0 14 -13 -16 -140z m-79 -170 c50 -99 55 -116 55 -175 l0 -65 -135 0
-135 0 0 175 0 175 80 0 80 0 55 -110z m-255 10 c0 -19 -7 -20 -135 -20 -128
0 -135 1 -135 20 0 19 7 20 135 20 128 0 135 -1 135 -20z m0 -155 l0 -95 -175
0 -175 0 0 95 0 95 175 0 175 0 0 -95z m210 -155 c-10 -19 -21 -20 -195 -20
-102 0 -185 2 -185 4 0 2 -3 11 -6 20 -5 14 16 16 195 16 199 0 202 0 191 -20z
m600 -95 c0 -153 -2 -155 -141 -155 l-101 0 32 26 c18 16 54 72 86 135 53 107
55 109 89 109 l35 0 0 -115z m-476 24 c32 -15 60 -72 51 -106 -3 -13 -17 -36
-30 -49 l-24 -24 -315 0 -314 0 -26 31 c-36 43 -35 91 3 130 l29 29 301 0
c203 0 308 -4 325 -11z"/>
<path d="M477 714 c-4 -4 -7 -56 -7 -116 l0 -108 30 0 c19 0 33 -7 40 -21 10
-17 19 -20 63 -17 l52 3 2 40 c2 31 -8 60 -45 130 -46 89 -47 90 -87 93 -23 2
-44 0 -48 -4z m103 -114 c22 -44 40 -89 40 -100 0 -26 -34 -27 -52 -1 -8 10
-25 21 -38 23 -24 3 -25 7 -28 81 -3 72 -1 77 17 77 16 0 31 -19 61 -80z"/>
<path d="M80 485 c0 -24 5 -35 14 -35 21 0 29 17 22 46 -10 38 -36 30 -36 -11z"/>
<path d="M160 485 c0 -24 5 -35 15 -35 10 0 15 11 15 35 0 24 -5 35 -15 35
-10 0 -15 -11 -15 -35z"/>
<path d="M234 506 c-9 -24 0 -51 19 -54 14 -3 17 4 17 32 0 26 -4 36 -15 36
-9 0 -18 -6 -21 -14z"/>
<path d="M1128 213 c-3 -33 -7 -38 -30 -41 -17 -2 -28 -9 -28 -18 0 -12 10
-14 43 -12 l42 3 3 53 c2 41 0 52 -12 52 -10 0 -16 -12 -18 -37z"/>
<path d="M97 232 c-19 -21 -22 -45 -7 -73 10 -18 24 -19 315 -19 303 0 304 0
319 22 21 30 20 44 -4 68 -19 19 -33 20 -221 20 -186 0 -200 -1 -197 -17 3
-16 20 -18 161 -21 149 -2 157 -4 157 -22 0 -19 -8 -20 -215 -20 -206 0 -215
1 -215 19 0 14 8 21 28 23 16 2 27 9 27 18 0 12 -15 16 -66 18 -53 2 -68 -1
-82 -16z m51 -39 c-4 -22 -22 -20 -26 1 -2 10 3 16 13 16 10 0 15 -7 13 -17z
m547 -3 c0 -22 -29 -18 -33 3 -3 14 1 18 15 15 10 -2 18 -10 18 -18z"/>
</g>
</svg>
