<?xml version="1.0" standalone="no"?>
<!DOCTYPE svg PUBLIC "-//W3C//DTD SVG 20010904//EN"
 "http://www.w3.org/TR/2001/REC-SVG-20010904/DTD/svg10.dtd">
<svg version="1.0" xmlns="http://www.w3.org/2000/svg"
 width="128.000000pt" height="128.000000pt" viewBox="0 0 128.000000 128.000000"
 preserveAspectRatio="xMidYMid meet">

<g transform="translate(0.000000,128.000000) scale(0.100000,-0.100000)"
fill="#000000" stroke="none">
<path d="M935 1267 c-35 -16 -85 -71 -85 -93 0 -7 -15 -20 -33 -28 -93 -38
-127 -169 -63 -242 19 -23 21 -32 13 -63 -26 -97 50 -201 148 -201 l25 0 0
-240 0 -240 -80 0 -80 0 0 29 c0 25 4 30 28 33 26 3 27 5 27 58 l0 55 -37 3
c-29 2 -38 8 -38 22 0 13 8 20 28 22 l27 3 0 105 0 105 -295 0 -295 0 0 -105
0 -105 28 -3 c19 -2 27 -9 27 -22 0 -14 -9 -20 -37 -22 l-38 -3 0 -55 c0 -53
1 -55 28 -58 23 -3 27 -8 27 -33 0 -29 0 -29 -60 -29 l-60 0 0 256 0 255 35
33 c30 29 35 39 35 81 0 32 5 52 16 60 15 10 14 16 -10 63 l-26 52 -70 0 -70
0 -26 -52 c-24 -47 -25 -53 -10 -63 11 -8 16 -28 16 -60 0 -42 5 -52 35 -81
l35 -33 0 -255 0 -255 -47 -3 -48 -3 0 -75 0 -75 635 0 635 0 0 75 0 75 -107
3 -108 3 0 239 0 240 25 0 c97 0 173 102 149 199 -8 30 -6 42 13 70 33 49 38
94 18 147 -16 42 -68 94 -93 94 -6 0 -21 18 -32 39 -11 22 -33 49 -49 61 -38
27 -116 35 -156 17z m108 -38 c38 -20 66 -50 72 -80 5 -20 14 -29 34 -34 16
-3 41 -20 57 -36 24 -25 29 -39 29 -79 0 -40 -5 -54 -29 -79 -15 -16 -45 -33
-65 -38 -53 -13 -48 -39 6 -36 34 1 43 -2 48 -19 11 -34 -4 -83 -36 -113 -24
-24 -38 -29 -72 -28 -53 2 -120 2 -175 0 -35 -1 -47 4 -75 31 -27 28 -32 39
-32 82 0 40 5 54 29 79 15 16 45 33 65 38 21 5 36 15 36 23 0 23 -71 17 -105
-8 l-28 -21 -18 21 c-13 14 -19 35 -19 68 0 40 5 54 29 79 34 36 82 48 128 32
20 -7 35 -8 41 -2 15 15 -9 38 -44 46 -35 8 -36 15 -6 42 47 43 88 53 130 32z
m-863 -329 c10 -19 8 -20 -60 -20 -68 0 -70 1 -60 20 8 16 21 20 60 20 39 0
52 -4 60 -20z m-10 -104 c0 -48 -19 -76 -50 -76 -31 0 -50 28 -50 76 l0 44 50
0 50 0 0 -44z m848 -389 c2 -242 2 -247 -18 -247 -20 0 -20 6 -20 243 0 134 3
247 7 251 24 23 28 -14 31 -247z m-238 83 l0 -70 -260 0 -260 0 0 70 0 70 260
0 260 0 0 -70z m-420 -130 c0 -13 -7 -20 -20 -20 -13 0 -20 7 -20 20 0 13 7
20 20 20 13 0 20 -7 20 -20z m280 0 c0 -19 -7 -20 -120 -20 -113 0 -120 1
-120 20 0 19 7 20 120 20 113 0 120 -1 120 -20z m80 0 c0 -13 -7 -20 -20 -20
-13 0 -20 7 -20 20 0 13 7 20 20 20 13 0 20 -7 20 -20z m80 -80 c0 -20 -7 -20
-280 -20 -273 0 -280 0 -280 20 0 20 7 20 280 20 273 0 280 0 280 -20z m-460
-90 c0 -23 -4 -30 -20 -30 -16 0 -20 7 -20 30 0 23 4 30 20 30 16 0 20 -7 20
-30z m320 0 l0 -30 -140 0 -140 0 0 30 0 30 140 0 140 0 0 -30z m80 0 c0 -23
-4 -30 -20 -30 -16 0 -20 7 -20 30 0 23 4 30 20 30 16 0 20 -7 20 -30z m500
-110 l0 -40 -600 0 -600 0 0 40 0 40 600 0 600 0 0 -40z"/>
<path d="M286 1211 c-9 -13 1 -31 16 -31 7 0 22 -10 35 -22 l23 -21 23 20 c12
11 30 23 40 27 29 10 14 31 -19 28 -48 -4 -58 -4 -85 3 -16 4 -29 2 -33 -4z"/>
<path d="M446 1111 c-9 -13 1 -31 16 -31 7 0 22 -10 35 -22 l23 -21 23 20 c12
11 30 23 40 27 29 10 14 31 -19 28 -48 -4 -58 -4 -85 3 -16 4 -29 2 -33 -4z"/>
</g>
</svg>
