<?xml version="1.0" standalone="no"?>
<!DOCTYPE svg PUBLIC "-//W3C//DTD SVG 20010904//EN"
 "http://www.w3.org/TR/2001/REC-SVG-20010904/DTD/svg10.dtd">
<svg version="1.0" xmlns="http://www.w3.org/2000/svg"
 width="128.000000pt" height="128.000000pt" viewBox="0 0 128.000000 128.000000"
 preserveAspectRatio="xMidYMid meet">

<g transform="translate(0.000000,128.000000) scale(0.100000,-0.100000)"
fill="#000000" stroke="none">
<path d="M1054 1270 c-21 -8 -59 -50 -67 -73 -2 -7 -15 1 -30 19 -35 42 -77
58 -133 51 -102 -11 -157 -131 -105 -228 l20 -36 -30 -22 c-37 -27 -54 -61
-69 -136 -7 -33 -21 -70 -33 -82 -19 -21 -30 -23 -119 -23 -118 0 -164 -15
-175 -57 -4 -15 -6 -33 -5 -40 2 -7 -15 -17 -37 -23 -52 -14 -75 -44 -95 -126
-15 -57 -15 -69 -3 -81 19 -19 30 -3 54 77 14 48 25 68 44 77 16 9 83 13 215
13 l191 0 66 69 c46 47 65 74 61 85 -11 29 -38 17 -95 -44 l-56 -60 -146 0
-147 0 0 24 c0 32 14 36 139 36 l108 0 76 79 c53 55 75 84 71 95 -7 18 -29 21
-39 6 -14 -22 -23 -8 -14 19 15 43 42 63 93 68 42 5 48 3 81 -30 44 -44 44
-49 3 -252 -44 -219 -25 -205 -273 -205 -211 0 -250 -7 -278 -52 -9 -12 -32
-86 -52 -163 -57 -221 -49 -205 -101 -205 -29 0 -47 5 -50 14 -3 7 4 51 16 96
22 87 21 114 -7 108 -11 -2 -23 -29 -39 -88 -29 -108 -29 -126 1 -155 20 -20
34 -25 78 -25 80 0 91 14 126 149 17 62 32 115 34 117 2 2 20 -3 40 -11 20 -8
66 -15 103 -15 36 0 64 -3 62 -8 -44 -103 -79 -204 -75 -216 6 -14 34 -16 212
-16 166 0 207 3 211 14 3 8 -15 62 -39 120 l-45 106 76 0 c88 0 135 21 153 68
14 35 59 258 59 288 0 32 -37 33 -45 2 -3 -13 -16 -76 -30 -142 -28 -128 -36
-150 -61 -160 -8 -3 -136 -6 -284 -6 -244 0 -270 2 -290 18 -30 24 -30 70 0
94 20 16 44 18 224 18 184 0 204 2 234 20 18 11 39 35 46 53 8 17 44 180 82
361 71 344 82 376 130 376 28 0 64 -32 64 -58 0 -10 -16 -93 -35 -185 -41
-196 -43 -217 -16 -217 24 0 21 -9 67 215 35 174 37 194 24 224 -23 56 -89 84
-146 61z m-147 -74 c24 -21 28 -32 28 -75 0 -41 -5 -55 -26 -77 -39 -39 -94
-36 -132 6 -26 29 -29 38 -24 79 9 84 92 120 154 67z m28 -244 c-12 -13 -24
22 -12 37 10 12 13 11 15 -8 2 -13 1 -26 -3 -29z m-148 -804 l39 -93 -149 -3
c-83 -1 -151 -1 -153 1 -2 2 13 45 34 95 l37 92 76 0 77 0 39 -92z"/>
<path d="M1070 700 c0 -13 7 -20 20 -20 13 0 20 7 20 20 0 13 -7 20 -20 20
-13 0 -20 -7 -20 -20z"/>
<path d="M151 360 c-17 -10 -7 -40 13 -40 7 0 16 6 19 14 8 19 -15 37 -32 26z"/>
</g>
</svg>
