<?xml version="1.0" standalone="no"?>
<!DOCTYPE svg PUBLIC "-//W3C//DTD SVG 20010904//EN"
 "http://www.w3.org/TR/2001/REC-SVG-20010904/DTD/svg10.dtd">
<svg version="1.0" xmlns="http://www.w3.org/2000/svg"
 width="128.000000pt" height="128.000000pt" viewBox="0 0 128.000000 128.000000"
 preserveAspectRatio="xMidYMid meet">

<g transform="translate(0.000000,128.000000) scale(0.100000,-0.100000)"
fill="#000000" stroke="none">
<path d="M510 1221 c-21 -57 -24 -60 -79 -81 l-57 -21 -44 20 c-25 11 -52 21
-60 21 -20 0 -150 -131 -150 -150 0 -8 10 -35 21 -60 l20 -44 -21 -57 c-21
-55 -24 -58 -81 -79 l-59 -22 0 -108 0 -108 59 -22 c57 -21 60 -24 81 -79 l21
-57 -20 -44 c-11 -25 -21 -52 -21 -60 0 -20 131 -150 150 -150 8 0 35 10 60
21 l44 20 57 -21 c55 -21 58 -24 79 -81 l22 -59 108 0 108 0 22 59 c21 57 24
60 79 81 l57 21 44 -20 c25 -11 52 -21 60 -21 20 0 150 131 150 150 0 8 -10
35 -21 60 l-20 44 21 57 c21 55 24 58 81 79 l59 22 0 108 0 108 -59 22 c-57
21 -60 24 -81 79 l-21 57 20 44 c11 25 21 52 21 60 0 20 -131 150 -150 150 -8
0 -35 -10 -60 -21 l-44 -20 -57 21 c-55 21 -58 24 -79 81 l-22 59 -108 0 -108
0 -22 -59z m237 -37 c26 -53 32 -58 91 -81 l63 -25 55 23 56 22 55 -56 56 -55
-22 -56 -23 -55 25 -63 c23 -59 28 -65 81 -91 l56 -28 0 -79 0 -79 -56 -28
c-53 -26 -58 -32 -81 -91 l-25 -63 23 -55 22 -56 -56 -55 -55 -56 -56 22 -55
23 -63 -25 c-59 -23 -65 -28 -91 -81 l-28 -56 -79 0 -79 0 -28 56 c-26 53 -32
58 -91 81 l-63 25 -55 -23 -56 -22 -55 56 -56 55 22 56 23 55 -25 63 c-23 59
-28 65 -81 91 l-56 28 0 79 0 79 56 28 c53 26 58 32 81 91 l25 63 -23 55 -22
56 56 55 55 56 56 -22 55 -23 63 25 c59 23 65 28 91 81 l28 56 79 0 79 0 28
-56z"/>
<path d="M525 1037 c-118 -40 -207 -117 -258 -225 -30 -62 -32 -75 -32 -172 0
-97 2 -110 32 -172 41 -88 113 -160 201 -201 62 -30 75 -32 172 -32 97 0 110
2 172 32 88 41 160 113 201 201 30 62 32 75 32 172 0 97 -2 110 -32 172 -41
88 -113 160 -201 201 -57 27 -80 32 -157 34 -55 2 -105 -2 -130 -10z m277 -60
c66 -32 151 -118 181 -184 32 -69 32 -237 0 -306 -31 -66 -115 -152 -182 -184
-50 -25 -67 -28 -161 -28 -94 0 -111 3 -161 28 -67 32 -151 118 -182 184 -18
40 -22 66 -22 153 0 125 17 171 91 250 88 94 155 121 290 117 74 -2 100 -8
146 -30z"/>
<path d="M567 970 c-40 -11 -132 -55 -141 -68 -2 -4 -1 -13 3 -20 5 -9 24 -4
71 20 55 29 73 33 139 33 63 0 86 -5 133 -28 107 -53 163 -144 163 -267 0 -85
-21 -142 -74 -203 -82 -92 -237 -121 -353 -64 -107 53 -162 143 -163 268 0 66
4 84 33 139 24 47 29 66 20 71 -18 12 -32 -5 -64 -74 -23 -50 -28 -76 -28
-137 -1 -66 4 -85 32 -142 102 -208 359 -258 531 -103 22 20 55 67 73 103 61
123 39 264 -57 371 -73 80 -217 126 -318 101z"/>
<path d="M520 837 l-105 -63 0 -134 0 -134 105 -63 c58 -34 112 -62 120 -62 8
0 62 28 120 62 l105 63 0 134 0 134 -105 63 c-58 34 -112 62 -120 62 -8 0 -62
-28 -120 -62z m209 -26 l84 -49 -86 -50 -86 -51 -87 51 -86 51 83 48 c46 27
86 49 89 49 3 0 43 -22 89 -49z m-111 -281 l3 -101 -53 31 c-29 17 -68 39 -85
47 l-33 17 0 102 0 103 83 -49 82 -48 3 -102z m212 97 l0 -103 -32 -17 c-18
-8 -57 -30 -85 -47 l-53 -30 0 99 0 100 83 50 c45 27 83 50 85 50 1 1 2 -45 2
-102z"/>
</g>
</svg>
