<?xml version="1.0" standalone="no"?>
<!DOCTYPE svg PUBLIC "-//W3C//DTD SVG 20010904//EN"
 "http://www.w3.org/TR/2001/REC-SVG-20010904/DTD/svg10.dtd">
<svg version="1.0" xmlns="http://www.w3.org/2000/svg"
 width="128.000000pt" height="128.000000pt" viewBox="0 0 128.000000 128.000000"
 preserveAspectRatio="xMidYMid meet">

<g transform="translate(0.000000,128.000000) scale(0.100000,-0.100000)"
fill="#000000" stroke="none">
<path d="M433 1260 c-4 -17 -15 -20 -87 -22 l-81 -3 -5 -40 -5 -40 -82 -3 -83
-3 0 -473 c0 -260 3 -476 7 -479 3 -4 12 -2 20 4 10 9 13 97 13 460 l0 448 83
3 82 3 3 37 3 37 77 3 c69 3 78 5 87 26 8 17 18 22 47 22 21 0 38 -4 38 -9 0
-28 34 -41 106 -41 67 0 75 -2 72 -17 -3 -16 -23 -19 -193 -23 -160 -4 -190
-7 -190 -20 0 -13 39 -15 278 -18 l277 -2 0 -50 c0 -27 4 -51 9 -54 19 -12 32
24 29 81 l-3 58 -82 3 -83 3 0 32 c0 48 -15 57 -96 57 -64 0 -73 2 -79 20 -6
18 -15 20 -82 20 -66 0 -75 -2 -80 -20z"/>
<path d="M623 657 c-352 -351 -624 -630 -621 -638 2 -7 10 -15 17 -17 17 -6
1265 1242 1259 1259 -2 7 -10 15 -17 17 -8 3 -287 -269 -638 -621z"/>
<path d="M182 1062 c-9 -7 -12 -92 -10 -393 3 -356 4 -384 21 -387 13 -3 17 3
17 26 0 21 6 31 20 35 26 7 26 33 0 40 -17 4 -20 14 -20 66 l0 61 45 0 45 0 0
-50 c0 -43 3 -50 20 -50 17 0 20 7 20 50 l0 50 43 0 c67 1 87 24 87 104 l0 66
43 0 c24 0 48 -5 53 -10 7 -7 18 -2 33 14 14 15 19 26 12 31 -6 3 -11 35 -11
71 l0 64 39 0 c35 0 39 -3 45 -30 7 -39 35 -40 42 -1 5 22 13 30 35 35 39 7
38 35 -1 43 -29 5 -30 7 -30 64 l0 59 39 0 40 0 3 -47 c2 -37 7 -49 21 -51 16
-3 18 4 15 70 l-3 73 -325 2 c-179 2 -331 -1 -338 -5z m118 -102 l0 -60 -45 0
-45 0 0 60 0 60 45 0 45 0 0 -60z m130 0 l0 -60 -45 0 -45 0 0 60 0 60 45 0
45 0 0 -60z m120 0 l0 -60 -40 0 -40 0 0 60 0 60 40 0 40 0 0 -60z m130 0 l0
-60 -40 0 -40 0 0 60 0 60 40 0 40 0 0 -60z m-380 -170 l0 -60 -45 0 -45 0 0
60 0 60 45 0 45 0 0 -60z m130 0 l0 -60 -45 0 -45 0 0 60 0 60 45 0 45 0 0
-60z m120 0 l0 -60 -40 0 -40 0 0 60 0 60 40 0 40 0 0 -60z m-252 -172 l-3
-63 -40 0 -40 0 -3 63 -3 62 46 0 46 0 -3 -62z m130 0 l-3 -63 -40 0 -40 0 -3
63 -3 62 46 0 46 0 -3 -62z"/>
<path d="M984 836 c-10 -25 0 -61 19 -64 12 -2 17 3 17 17 0 16 6 21 25 21 18
0 25 -5 25 -20 0 -18 7 -20 85 -20 l85 0 0 -147 0 -148 -168 168 c-92 92 -173
167 -180 167 -36 0 5 -53 171 -218 100 -100 190 -182 200 -182 16 0 17 15 15
198 l-3 197 -81 3 c-72 2 -83 5 -87 22 -4 17 -14 20 -61 20 -40 0 -58 -4 -62
-14z"/>
<path d="M522 418 c-18 -18 -16 -182 2 -197 9 -7 41 -11 83 -9 l68 3 0 105 0
105 -70 3 c-46 2 -74 -1 -83 -10z m118 -98 l0 -60 -45 0 -45 0 0 60 0 60 45 0
45 0 0 -60z"/>
<path d="M737 423 c-4 -3 -7 -71 -7 -150 0 -132 1 -144 18 -141 15 3 17 18 20
126 l3 122 39 0 c40 0 40 0 40 -39 0 -30 -4 -40 -20 -44 -11 -3 -20 -10 -20
-17 0 -7 9 -14 20 -17 16 -4 20 -14 20 -53 0 -57 7 -80 25 -80 21 0 25 25 25
154 0 82 -4 126 -12 134 -13 13 -140 17 -151 5z"/>
<path d="M953 423 c-9 -3 -13 -34 -13 -103 0 -111 -1 -110 85 -110 86 0 85 -1
85 110 0 80 -3 99 -16 104 -18 7 -123 7 -141 -1z m117 -103 l0 -60 -45 0 -45
0 0 60 0 60 45 0 45 0 0 -60z"/>
<path d="M1162 418 c-8 -8 -12 -66 -12 -195 l0 -182 -82 -3 c-66 -2 -83 -6
-83 -18 0 -12 18 -15 100 -15 l100 0 3 204 c1 113 -1 208 -6 213 -4 4 -13 3
-20 -4z"/>
<path d="M432 183 l3 -178 142 -3 c135 -2 142 -2 148 18 6 18 15 20 90 20 76
0 83 -2 88 -21 8 -29 31 -19 35 15 6 48 -10 56 -120 56 -101 0 -138 -9 -138
-35 0 -12 -19 -15 -105 -15 l-104 0 -3 157 c-3 142 -5 158 -21 161 -16 3 -17
-9 -15 -175z"/>
</g>
</svg>
