<?xml version="1.0" standalone="no"?>
<!DOCTYPE svg PUBLIC "-//W3C//DTD SVG 20010904//EN"
 "http://www.w3.org/TR/2001/REC-SVG-20010904/DTD/svg10.dtd">
<svg version="1.0" xmlns="http://www.w3.org/2000/svg"
 width="512.000000pt" height="512.000000pt" viewBox="0 0 512.000000 512.000000"
 preserveAspectRatio="xMidYMid meet">

<g transform="translate(0.000000,512.000000) scale(0.100000,-0.100000)"
fill="#000000" stroke="none">
<path d="M4090 4983 c-369 -38 -669 -267 -805 -614 -57 -144 -73 -348 -40
-503 86 -410 431 -973 712 -1164 200 -136 342 -105 569 122 339 341 617 940
591 1276 -36 462 -386 829 -839 879 -96 11 -119 11 -188 4z m277 -213 c157
-43 297 -135 394 -257 134 -168 192 -379 159 -580 -46 -293 -282 -724 -535
-979 -154 -156 -208 -174 -313 -104 -139 93 -365 389 -496 649 -106 209 -157
386 -158 541 0 133 20 219 78 338 103 207 309 363 539 406 99 19 234 13 332
-14z"/>
<path d="M4040 4491 c-88 -28 -140 -60 -201 -120 -179 -179 -185 -459 -14
-649 178 -198 490 -206 679 -16 153 152 182 391 72 578 -33 56 -111 132 -172
166 -103 59 -255 76 -364 41z m259 -202 c103 -51 154 -139 153 -260 -1 -96
-46 -174 -134 -230 -64 -42 -171 -52 -245 -24 -57 22 -128 85 -155 139 -49 97
-30 232 46 314 88 97 217 120 335 61z"/>
<path d="M1176 4030 c-457 -58 -841 -332 -1042 -745 -172 -353 -175 -723 -9
-1221 212 -633 604 -1199 950 -1370 221 -109 415 -82 650 93 403 299 833 1117
915 1739 16 116 8 363 -15 464 -118 529 -551 943 -1078 1030 -90 15 -291 20
-371 10z m314 -194 c479 -73 853 -426 951 -899 67 -328 -30 -790 -259 -1236
-134 -262 -274 -462 -440 -633 -316 -325 -504 -328 -818 -14 -411 412 -734
1147 -734 1668 0 100 25 245 60 350 175 521 701 845 1240 764z"/>
<path d="M1255 3369 c-249 -25 -464 -195 -551 -433 -44 -121 -49 -278 -14
-406 45 -165 183 -331 340 -408 352 -174 769 -15 913 348 98 248 40 520 -153
712 -144 142 -332 208 -535 187z m224 -211 c302 -103 416 -469 226 -727 -220
-299 -693 -230 -821 119 -133 368 226 735 595 608z"/>
<path d="M3660 2513 c-68 -26 -323 -269 -398 -380 -144 -212 -175 -413 -91
-592 35 -75 72 -123 160 -206 196 -184 299 -289 360 -368 118 -152 183 -313
159 -396 -42 -146 -212 -214 -605 -242 -379 -26 -841 35 -1216 162 -64 21
-126 39 -138 39 -54 0 -102 -70 -82 -121 15 -39 44 -58 146 -95 367 -131 874
-200 1290 -174 213 13 334 32 450 71 110 37 164 68 232 132 191 180 149 458
-117 782 -53 64 -107 118 -358 359 -108 103 -137 161 -136 266 1 83 27 157 88
253 62 96 200 237 314 321 79 58 94 115 43 167 -29 28 -64 36 -101 22z"/>
</g>
</svg>
