<?xml version="1.0" encoding="UTF-8"?>
<!DOCTYPE svg PUBLIC "-//W3C//DTD SVG 1.1//EN" "http://www.w3.org/Graphics/SVG/1.1/DTD/svg11.dtd">
<svg xmlns="http://www.w3.org/2000/svg" version="1.1" width="512px" height="512px" style="shape-rendering:geometricPrecision; text-rendering:geometricPrecision; image-rendering:optimizeQuality; fill-rule:evenodd; clip-rule:evenodd" xmlns:xlink="http://www.w3.org/1999/xlink">
<g><path style="opacity:0.947" fill="#000000" d="M 511.5,120.5 C 511.5,188.5 511.5,256.5 511.5,324.5C 508.831,333.169 503.164,338.836 494.5,341.5C 494.667,383.501 494.5,425.501 494,467.5C 490.978,477.854 484.145,484.021 473.5,486C 328.167,486.667 182.833,486.667 37.5,486C 26.8554,484.021 20.0221,477.854 17,467.5C 16.5,425.501 16.3333,383.501 16.5,341.5C 7.83615,338.836 2.16948,333.169 -0.5,324.5C -0.5,256.5 -0.5,188.5 -0.5,120.5C 2.75018,110.753 9.41684,104.587 19.5,102C 58.1652,101.5 96.8319,101.333 135.5,101.5C 135.104,86.456 135.604,71.456 137,56.5C 142.813,38.0195 155.313,27.5195 174.5,25C 228.5,24.3333 282.5,24.3333 336.5,25C 355.687,27.5195 368.187,38.0195 374,56.5C 375.396,71.456 375.896,86.456 375.5,101.5C 414.168,101.333 452.835,101.5 491.5,102C 501.583,104.587 508.25,110.753 511.5,120.5 Z M 175.5,42.5 C 230.213,42.0168 284.879,42.5168 339.5,44C 347.667,46.8333 353.167,52.3333 356,60.5C 357.427,74.1069 357.927,87.7736 357.5,101.5C 352.167,101.5 346.833,101.5 341.5,101.5C 341.667,89.4954 341.5,77.4954 341,65.5C 340.027,61.5936 337.527,59.427 333.5,59C 307.5,58.8333 281.5,58.6667 255.5,58.5C 228.44,58.346 201.44,58.846 174.5,60C 172.185,61.1094 170.685,62.9427 170,65.5C 169.5,77.4954 169.333,89.4954 169.5,101.5C 164.167,101.5 158.833,101.5 153.5,101.5C 153.333,89.1622 153.5,76.8288 154,64.5C 156.681,52.6533 163.848,45.3199 175.5,42.5 Z M 187.5,76.5 C 232.833,76.5 278.167,76.5 323.5,76.5C 323.5,84.8333 323.5,93.1667 323.5,101.5C 278.167,101.5 232.833,101.5 187.5,101.5C 187.5,93.1667 187.5,84.8333 187.5,76.5 Z M 22.5,119.5 C 178.58,119.003 334.58,119.503 490.5,121C 491.701,121.903 492.535,123.069 493,124.5C 493.993,190.582 493.659,256.582 492,322.5C 489.242,324.643 486.076,325.81 482.5,326C 418.486,334.835 354.486,343.668 290.5,352.5C 293.303,326.308 281.636,313.641 255.5,314.5C 229.364,313.641 217.697,326.308 220.5,352.5C 156.514,343.668 92.5137,334.835 28.5,326C 24.9245,325.81 21.7578,324.643 19,322.5C 17.3406,256.582 17.0072,190.582 18,124.5C 19.025,122.313 20.525,120.646 22.5,119.5 Z M 246.5,332.5 C 252.509,332.334 258.509,332.501 264.5,333C 269,333.5 271.5,336 272,340.5C 272.667,357.833 272.667,375.167 272,392.5C 271.5,397 269,399.5 264.5,400C 258.5,400.667 252.5,400.667 246.5,400C 242,399.5 239.5,397 239,392.5C 238.333,375.167 238.333,357.833 239,340.5C 239.68,335.989 242.18,333.323 246.5,332.5 Z M 34.5,345.5 C 96.5,353.833 158.5,362.167 220.5,370.5C 220.334,378.174 220.5,385.841 221,393.5C 221.883,404.035 227.05,411.535 236.5,416C 249.167,419.333 261.833,419.333 274.5,416C 283.95,411.535 289.117,404.035 290,393.5C 290.5,385.841 290.666,378.174 290.5,370.5C 352.5,362.167 414.5,353.833 476.5,345.5C 476.667,384.835 476.5,424.168 476,463.5C 474.891,465.815 473.057,467.315 470.5,468C 327.167,468.667 183.833,468.667 40.5,468C 37.9427,467.315 36.1094,465.815 35,463.5C 34.5,424.168 34.3333,384.835 34.5,345.5 Z"/></g>
</svg>
