<?xml version="1.0" standalone="no"?>
<!DOCTYPE svg PUBLIC "-//W3C//DTD SVG 20010904//EN"
 "http://www.w3.org/TR/2001/REC-SVG-20010904/DTD/svg10.dtd">
<svg version="1.0" xmlns="http://www.w3.org/2000/svg"
 width="128.000000pt" height="128.000000pt" viewBox="0 0 128.000000 128.000000"
 preserveAspectRatio="xMidYMid meet">

<g transform="translate(0.000000,128.000000) scale(0.100000,-0.100000)"
fill="#000000" stroke="none">
<path d="M52 1204 l-22 -15 0 -529 0 -529 22 -15 c20 -14 82 -16 479 -16 446
0 457 0 483 21 14 11 26 28 26 36 0 10 22 -5 59 -40 65 -62 97 -71 131 -37 12
12 20 33 20 52 0 28 -14 47 -90 123 l-91 91 16 37 c8 20 15 65 15 101 0 52 -6
75 -30 121 l-30 57 0 259 c0 246 -1 260 -20 279 -19 19 -33 20 -483 20 -402 0
-465 -2 -485 -16z m946 -270 l2 -241 -49 24 c-36 18 -65 24 -114 24 -77 0
-120 -16 -177 -67 -209 -189 -18 -529 254 -450 70 21 89 11 84 -43 l-3 -36
-454 -3 c-327 -1 -458 1 -467 9 -12 9 -14 100 -14 504 0 272 3 501 6 509 6 15
53 16 468 14 l461 -3 3 -241z m-65 -250 c172 -87 175 -323 6 -408 -88 -43
-181 -32 -251 32 -70 63 -96 156 -67 243 43 128 194 192 312 133z m206 -458
c73 -75 81 -87 71 -105 -6 -12 -18 -21 -27 -21 -9 0 -54 37 -99 83 l-82 82 21
23 c11 12 23 22 27 22 4 0 44 -38 89 -84z"/>
<path d="M266 1085 c-16 -9 -35 -23 -42 -33 -17 -22 -18 -86 -1 -113 10 -17 9
-22 -11 -37 -37 -29 -62 -74 -62 -115 0 -50 19 -45 38 11 27 81 108 115 182
77 32 -16 60 -61 60 -94 0 -24 18 -37 32 -23 20 20 -2 84 -43 125 -37 38 -38
40 -24 67 8 16 15 36 15 45 0 32 -32 77 -65 91 -42 17 -43 17 -79 -1z m78 -46
c15 -12 26 -30 26 -44 0 -24 -41 -65 -65 -65 -7 0 -23 8 -35 18 -30 24 -30 70
0 94 29 23 41 23 74 -3z"/>
<path d="M567 1074 c-4 -4 -7 -13 -7 -21 0 -11 33 -13 178 -11 149 3 177 5
177 18 0 13 -27 15 -171 18 -93 1 -173 -1 -177 -4z"/>
<path d="M562 923 c3 -16 20 -18 158 -21 169 -3 200 1 200 23 0 13 -28 15
-181 15 -166 0 -180 -1 -177 -17z"/>
<path d="M567 804 c-4 -4 -7 -13 -7 -21 0 -10 23 -13 96 -13 86 0 95 2 92 18
-3 14 -17 17 -89 20 -47 1 -88 0 -92 -4z"/>
<path d="M152 653 c3 -17 20 -18 208 -18 176 0 205 2 205 15 0 13 -31 15 -208
18 -195 2 -208 1 -205 -15z"/>
<path d="M157 534 c-4 -4 -7 -13 -7 -21 0 -10 38 -13 186 -13 171 0 185 1 182
18 -3 15 -21 17 -179 20 -96 1 -178 -1 -182 -4z"/>
<path d="M150 380 c0 -20 4 -20 193 -18 163 3 192 5 192 18 0 13 -29 15 -192
18 -189 2 -193 2 -193 -18z"/>
<path d="M150 245 c0 -13 28 -15 220 -13 136 2 221 7 223 13 1 6 -79 11 -220
13 -195 2 -223 0 -223 -13z"/>
<path d="M749 650 c-125 -66 -142 -223 -35 -318 95 -83 240 -53 295 61 23 47
27 110 10 154 -14 38 -67 92 -106 109 -45 20 -121 17 -164 -6z m169 -40 c97
-59 96 -192 -1 -264 -43 -32 -124 -28 -170 6 -39 30 -67 82 -67 124 0 42 37
110 73 133 43 28 121 28 165 1z"/>
</g>
</svg>
