<?xml version="1.0" encoding="UTF-8"?>
<!DOCTYPE svg PUBLIC "-//W3C//DTD SVG 1.1//EN" "http://www.w3.org/Graphics/SVG/1.1/DTD/svg11.dtd">
<svg xmlns="http://www.w3.org/2000/svg" version="1.1" width="512px" height="512px" style="shape-rendering:geometricPrecision; text-rendering:geometricPrecision; image-rendering:optimizeQuality; fill-rule:evenodd; clip-rule:evenodd" xmlns:xlink="http://www.w3.org/1999/xlink">
<g><path style="opacity:0.932" fill="#000000" d="M 163.5,-0.5 C 166.167,-0.5 168.833,-0.5 171.5,-0.5C 172.172,0.267389 173.005,0.934056 174,1.5C 177.503,8.68418 181.003,15.8508 184.5,23C 191.756,24.7036 199.089,26.0369 206.5,27C 211.609,30.3662 212.776,34.8662 210,40.5C 205,45.5 200,50.5 195,55.5C 195.618,63.5432 196.784,71.5432 198.5,79.5C 197.372,84.2954 194.372,86.9621 189.5,87.5C 181.94,84.3867 174.607,80.7201 167.5,76.5C 161.167,80 154.833,83.5 148.5,87C 141.429,88.4198 137.763,85.5865 137.5,78.5C 138.762,70.8391 139.596,63.1725 140,55.5C 134.301,50.1352 128.967,44.4685 124,38.5C 122.902,34.4948 123.735,30.9948 126.5,28C 134.876,26.3815 143.21,24.5482 151.5,22.5C 154.748,14.334 158.748,6.66731 163.5,-0.5 Z M 167.5,27.5 C 169.438,31.1925 171.771,34.6925 174.5,38C 178.5,39 182.5,40 186.5,41C 183.296,43.8688 180.463,47.0354 178,50.5C 177.907,54.8405 177.907,59.1739 178,63.5C 174.697,61.4322 171.197,59.7655 167.5,58.5C 163.803,59.7655 160.303,61.4322 157,63.5C 159.718,54.1904 157.218,46.6904 149.5,41C 153.975,40.1228 158.308,38.7895 162.5,37C 164.307,33.8855 165.973,30.7188 167.5,27.5 Z"/></g>
<g><path style="opacity:0.939" fill="#000000" d="M 270.5,-0.5 C 275.833,-0.5 281.167,-0.5 286.5,-0.5C 292.525,1.33136 297.692,4.66469 302,9.5C 306.726,4.7277 312.226,1.39436 318.5,-0.5C 323.833,-0.5 329.167,-0.5 334.5,-0.5C 355.99,9.11825 362.323,24.9516 353.5,47C 359.914,47.129 366.247,47.7957 372.5,49C 374.487,50.3189 375.654,52.1523 376,54.5C 376.333,81.5 376.667,108.5 377,135.5C 380.598,140.42 380.098,144.92 375.5,149C 344.167,149.333 312.833,149.667 281.5,150C 271.049,153.688 268.216,160.521 273,170.5C 274.731,172.617 276.898,174.117 279.5,175C 294.167,175.333 308.833,175.667 323.5,176C 329.958,180.124 335.458,185.29 340,191.5C 341.663,200.167 338.163,204 329.5,203C 325.2,199.702 321.2,196.035 317.5,192C 301.833,191.667 286.167,191.333 270.5,191C 245.01,177.172 219.177,164.005 193,151.5C 179.845,154.806 176.178,162.472 182,174.5C 227.588,201.379 273.421,227.879 319.5,254C 324.833,257.333 330.167,257.333 335.5,254C 367.669,234.748 400.002,215.748 432.5,197C 436.145,196.281 439.812,195.781 443.5,195.5C 443.5,169.167 443.5,142.833 443.5,116.5C 434.161,116.666 424.827,116.5 415.5,116C 411.247,112.58 410.413,108.413 413,103.5C 413.903,102.299 415.069,101.465 416.5,101C 425.494,100.5 434.494,100.334 443.5,100.5C 443.589,97.0609 444.922,94.2276 447.5,92C 467.5,91.3333 487.5,91.3333 507.5,92C 509.35,92.6897 510.684,93.8564 511.5,95.5C 511.5,136.167 511.5,176.833 511.5,217.5C 509.99,218.836 508.323,220.003 506.5,221C 487.5,221.667 468.5,221.667 449.5,221C 445.66,219.492 443.66,216.658 443.5,212.5C 440.68,212.248 438.014,212.748 435.5,214C 403.998,232.919 372.331,251.585 340.5,270C 330.198,273.788 320.198,273.121 310.5,268C 267.167,243.333 223.833,218.667 180.5,194C 163.088,183.098 158.588,168.264 167,149.5C 177.758,135.768 191.258,132.268 207.5,139C 214.009,142.755 220.676,146.255 227.5,149.5C 228.333,117.505 228.833,85.5052 229,53.5C 230.167,51 232,49.1667 234.5,48C 239.864,47.8295 245.198,47.3295 250.5,46.5C 242.648,24.5458 249.315,8.87918 270.5,-0.5 Z M 274.5,15.5 C 286.114,14.6412 292.781,19.9746 294.5,31.5C 291.586,45.1226 283.586,49.6226 270.5,45C 263.203,38.6619 261.703,31.1619 266,22.5C 268.441,19.5464 271.275,17.2131 274.5,15.5 Z M 321.5,15.5 C 335.293,15.1257 341.793,21.7924 341,35.5C 335.879,47.3175 327.713,50.1508 316.5,44C 307.351,32.5344 309.018,23.0344 321.5,15.5 Z M 244.5,64.5 C 261.167,64.5 277.833,64.5 294.5,64.5C 294.5,75.1667 294.5,85.8333 294.5,96.5C 277.833,96.5 261.167,96.5 244.5,96.5C 244.5,85.8333 244.5,75.1667 244.5,64.5 Z M 310.5,64.5 C 326.833,64.5 343.167,64.5 359.5,64.5C 359.5,75.1667 359.5,85.8333 359.5,96.5C 343.167,96.5 326.833,96.5 310.5,96.5C 310.5,85.8333 310.5,75.1667 310.5,64.5 Z M 460.5,107.5 C 472.167,107.5 483.833,107.5 495.5,107.5C 495.5,140.167 495.5,172.833 495.5,205.5C 483.833,205.5 472.167,205.5 460.5,205.5C 460.5,172.833 460.5,140.167 460.5,107.5 Z M 244.5,112.5 C 261.167,112.5 277.833,112.5 294.5,112.5C 294.5,119.5 294.5,126.5 294.5,133.5C 278.262,130.545 265.762,135.879 257,149.5C 255.189,153.988 254.189,158.654 254,163.5C 251,161.833 248,160.167 245,158.5C 244.5,143.17 244.333,127.837 244.5,112.5 Z M 310.5,112.5 C 326.833,112.5 343.167,112.5 359.5,112.5C 359.5,119.5 359.5,126.5 359.5,133.5C 343.167,133.5 326.833,133.5 310.5,133.5C 310.5,126.5 310.5,119.5 310.5,112.5 Z"/></g>
<g><path style="opacity:0.88" fill="#000000" d="M 393.5,115.5 C 401.182,114.323 405.515,117.49 406.5,125C 405.309,132.44 400.975,135.107 393.5,133C 388.845,130.103 387.345,125.937 389,120.5C 390.025,118.313 391.525,116.646 393.5,115.5 Z"/></g>
<g><path style="opacity:0.9" fill="#000000" d="M 56.5,116.5 C 61.2797,115.641 64.7797,117.308 67,121.5C 67.6667,126.833 67.6667,132.167 67,137.5C 62.4865,143.747 57.4865,144.08 52,138.5C 51.3333,132.5 51.3333,126.5 52,120.5C 53.3968,118.93 54.8968,117.596 56.5,116.5 Z"/></g>
<g><path style="opacity:0.88" fill="#000000" d="M 25.5,148.5 C 31.4018,147.962 37.0685,148.795 42.5,151C 44.934,154.716 45.1007,158.549 43,162.5C 41.8289,163.893 40.3289,164.727 38.5,165C 33.0509,165.896 27.7175,165.563 22.5,164C 16.6411,157.462 17.6411,152.295 25.5,148.5 Z"/></g>
<g><path style="opacity:0.878" fill="#000000" d="M 80.5,148.5 C 85.9127,148.229 91.2461,148.729 96.5,150C 99.3181,153.338 100.151,157.171 99,161.5C 97.6811,163.487 95.8477,164.654 93.5,165C 88.0509,165.896 82.7175,165.563 77.5,164C 71.9299,157.547 72.9299,152.38 80.5,148.5 Z"/></g>
<g><path style="opacity:0.898" fill="#000000" d="M 56.5,171.5 C 61.2797,170.641 64.7797,172.308 67,176.5C 67.6667,181.833 67.6667,187.167 67,192.5C 64.4586,197.069 60.6253,198.569 55.5,197C 54.3333,195.833 53.1667,194.667 52,193.5C 51.3333,187.5 51.3333,181.5 52,175.5C 53.3968,173.93 54.8968,172.596 56.5,171.5 Z"/></g>
<g><path style="opacity:0.937" fill="#000000" d="M 191.5,511.5 C 186.167,511.5 180.833,511.5 175.5,511.5C 141.103,492.464 107.103,472.631 73.5,452C 71.5273,451.505 69.5273,451.338 67.5,451.5C 67.5887,455.433 65.922,458.266 62.5,460C 42.8333,460.667 23.1667,460.667 3.5,460C 1.64977,459.31 0.316435,458.144 -0.5,456.5C -0.5,415.833 -0.5,375.167 -0.5,334.5C 0.316435,332.856 1.64977,331.69 3.5,331C 23.1667,330.333 42.8333,330.333 62.5,331C 65.922,332.734 67.5887,335.567 67.5,339.5C 76.1731,339.334 84.8397,339.5 93.5,340C 97.6661,340.985 99.6661,343.652 99.5,348C 99.6682,352.833 97.3348,355.5 92.5,356C 84.1733,356.5 75.84,356.666 67.5,356.5C 67.5,382.833 67.5,409.167 67.5,435.5C 71.9671,435.133 76.3004,435.633 80.5,437C 110.998,454.748 141.332,472.748 171.5,491C 176.274,494.729 181.607,496.062 187.5,495C 233.5,469 279.5,443 325.5,417C 331.995,411.509 333.495,405.009 330,397.5C 325.705,392.105 320.205,390.271 313.5,392C 288.657,405.255 263.657,418.255 238.5,431C 223.167,431.333 207.833,431.667 192.5,432C 189.167,435.333 185.833,438.667 182.5,442C 173.386,443.553 169.553,439.72 171,430.5C 175.833,425.667 180.667,420.833 185.5,416C 201.212,415.92 216.878,415.253 232.5,414C 240.628,409.251 242.461,402.751 238,394.5C 236.457,392.622 234.624,391.122 232.5,390C 201.167,389.667 169.833,389.333 138.5,389C 131.079,386.125 129.579,381.291 134,374.5C 134.333,347.5 134.667,320.5 135,293.5C 135.398,290.768 136.898,288.935 139.5,288C 145.5,287.667 151.5,287.333 157.5,287C 149.803,270.382 152.803,256.049 166.5,244C 181.572,235.529 195.572,237.029 208.5,248.5C 220.866,237.423 234.533,235.59 249.5,243C 261.85,252.216 266.35,264.383 263,279.5C 262.235,282.196 261.068,284.696 259.5,287C 265.833,287.333 272.167,287.667 278.5,288C 280.049,289.214 281.215,290.714 282,292.5C 282.333,324.833 282.667,357.167 283,389.5C 291.474,384.346 300.308,379.846 309.5,376C 325.882,372.451 338.049,377.951 346,392.5C 351.533,409.237 347.033,422.403 332.5,432C 285.73,459.048 238.73,485.548 191.5,511.5 Z M 181.5,254.5 C 196.509,255.184 202.342,262.851 199,277.5C 190.801,288.67 181.801,289.336 172,279.5C 167.367,268.112 170.534,259.779 181.5,254.5 Z M 229.5,254.5 C 245.343,256.182 250.509,264.515 245,279.5C 236.998,288.459 228.665,288.793 220,280.5C 214.026,268.361 217.193,259.694 229.5,254.5 Z M 151.5,303.5 C 167.833,303.5 184.167,303.5 200.5,303.5C 200.5,314.167 200.5,324.833 200.5,335.5C 184.167,335.5 167.833,335.5 151.5,335.5C 151.5,324.833 151.5,314.167 151.5,303.5 Z M 216.5,303.5 C 233.167,303.5 249.833,303.5 266.5,303.5C 266.5,314.167 266.5,324.833 266.5,335.5C 249.833,335.5 233.167,335.5 216.5,335.5C 216.5,324.833 216.5,314.167 216.5,303.5 Z M 15.5,346.5 C 27.1667,346.5 38.8333,346.5 50.5,346.5C 50.5,379.167 50.5,411.833 50.5,444.5C 38.8333,444.5 27.1667,444.5 15.5,444.5C 15.5,411.833 15.5,379.167 15.5,346.5 Z M 151.5,351.5 C 167.833,351.5 184.167,351.5 200.5,351.5C 200.5,358.5 200.5,365.5 200.5,372.5C 184.167,372.5 167.833,372.5 151.5,372.5C 151.5,365.5 151.5,358.5 151.5,351.5 Z M 216.5,351.5 C 233.167,351.5 249.833,351.5 266.5,351.5C 266.833,367.181 266.499,382.848 265.5,398.5C 262.833,399.833 260.167,401.167 257.5,402.5C 253.562,379.596 239.895,369.596 216.5,372.5C 216.5,365.5 216.5,358.5 216.5,351.5 Z"/></g>
<g><path style="opacity:0.901" fill="#000000" d="M 426.5,324.5 C 430.909,323.618 434.409,324.952 437,328.5C 437.667,334.5 437.667,340.5 437,346.5C 433.491,350.613 429.324,351.446 424.5,349C 423.107,347.829 422.273,346.329 422,344.5C 421.333,339.5 421.333,334.5 422,329.5C 423.025,327.313 424.525,325.646 426.5,324.5 Z"/></g>
<g><path style="opacity:0.876" fill="#000000" d="M 110.5,355.5 C 119.498,355.329 123.331,359.662 122,368.5C 116.827,376.036 111.16,376.369 105,369.5C 103.025,363.177 104.858,358.51 110.5,355.5 Z"/></g>
<g><path style="opacity:0.88" fill="#000000" d="M 395.5,356.5 C 400.959,356.103 406.292,356.603 411.5,358C 416.833,362.667 416.833,367.333 411.5,372C 404.693,374.21 398.027,373.877 391.5,371C 387.943,364.61 389.276,359.776 395.5,356.5 Z"/></g>
<g><path style="opacity:0.878" fill="#000000" d="M 450.5,356.5 C 456.358,355.987 462.025,356.654 467.5,358.5C 471.702,363.328 471.368,367.828 466.5,372C 459.693,374.21 453.027,373.877 446.5,371C 442.943,364.61 444.276,359.776 450.5,356.5 Z"/></g>
<g><path style="opacity:0.901" fill="#000000" d="M 426.5,379.5 C 430.909,378.618 434.409,379.952 437,383.5C 437.667,389.5 437.667,395.5 437,401.5C 433.491,405.613 429.324,406.446 424.5,404C 423.107,402.829 422.273,401.329 422,399.5C 421.333,394.5 421.333,389.5 422,384.5C 423.025,382.313 424.525,380.646 426.5,379.5 Z"/></g>
</svg>
