<?xml version="1.0" encoding="UTF-8"?>
<!DOCTYPE svg PUBLIC "-//W3C//DTD SVG 1.1//EN" "http://www.w3.org/Graphics/SVG/1.1/DTD/svg11.dtd">
<svg xmlns="http://www.w3.org/2000/svg" version="1.1" width="512px" height="512px" style="shape-rendering:geometricPrecision; text-rendering:geometricPrecision; image-rendering:optimizeQuality; fill-rule:evenodd; clip-rule:evenodd" xmlns:xlink="http://www.w3.org/1999/xlink">
<g><path style="opacity:0.972" fill="#000000" d="M 4.5,-0.5 C 37.1667,-0.5 69.8333,-0.5 102.5,-0.5C 104.134,0.971672 105.634,2.63834 107,4.5C 107.499,8.15159 107.665,11.8183 107.5,15.5C 156.501,15.3333 205.501,15.5 254.5,16C 263.654,17.6067 272.32,20.6067 280.5,25C 299.833,39.6667 319.167,54.3333 338.5,69C 384.5,69.3333 430.5,69.6667 476.5,70C 486,72.8333 492.167,79 495,88.5C 495.667,143.833 495.667,199.167 495,254.5C 491.376,266.128 483.542,272.628 471.5,274C 433.5,274.667 395.5,274.667 357.5,274C 349.251,272.035 346.418,266.868 349,258.5C 350.543,256.622 352.376,255.122 354.5,254C 380.167,253.667 405.833,253.333 431.5,253C 437.219,229.446 451.885,215.279 475.5,210.5C 475.667,184.831 475.5,159.165 475,133.5C 451.833,127.667 437.333,113.167 431.5,90C 362.833,89.3333 294.167,89.3333 225.5,90C 217.046,92.0748 214.212,97.2415 217,105.5C 218.167,106.667 219.333,107.833 220.5,109C 235.994,117.246 251.328,125.746 266.5,134.5C 285.951,113.304 309.285,107.471 336.5,117C 364.598,131.361 376.098,154.195 371,185.5C 363.882,209.618 348.049,224.451 323.5,230C 297.557,233.082 277.224,223.915 262.5,202.5C 230.748,201.206 199.748,195.373 169.5,185C 163.709,182.791 158.042,180.291 152.5,177.5C 151.501,188.48 151.168,199.48 151.5,210.5C 175.115,215.279 189.781,229.446 195.5,253C 221.167,253.333 246.833,253.667 272.5,254C 278.234,257.18 280.067,262.013 278,268.5C 276.272,271.953 273.438,273.786 269.5,274C 231.5,274.667 193.5,274.667 155.5,274C 143.458,272.628 135.624,266.128 132,254.5C 131.667,225.167 131.333,195.833 131,166.5C 126.416,163.792 121.916,160.958 117.5,158C 114.183,157.502 110.85,157.335 107.5,157.5C 107.666,163.176 107.499,168.843 107,174.5C 105.833,176.333 104.333,177.833 102.5,179C 69.8333,179.667 37.1667,179.667 4.5,179C 2.63834,177.634 0.971672,176.134 -0.5,174.5C -0.5,117.833 -0.5,61.1667 -0.5,4.5C 1.16667,2.83333 2.83333,1.16667 4.5,-0.5 Z M 19.5,19.5 C 42.1667,19.5 64.8333,19.5 87.5,19.5C 87.5,66.1667 87.5,112.833 87.5,159.5C 64.8333,159.5 42.1667,159.5 19.5,159.5C 19.5,112.833 19.5,66.1667 19.5,19.5 Z M 107.5,35.5 C 155.855,35.0495 204.189,35.5495 252.5,37C 259.607,38.5533 266.274,41.22 272.5,45C 282.653,53.2419 292.986,61.2419 303.5,69C 274.833,69.3333 246.167,69.6667 217.5,70C 200.658,75.8535 193.158,87.6869 195,105.5C 196.487,113.975 200.654,120.808 207.5,126C 224.34,135.587 241.34,144.921 258.5,154C 269.273,159.316 271.773,167.149 266,177.5C 263.06,180.705 259.393,182.371 255,182.5C 216.684,179.215 180.517,168.715 146.5,151C 139.564,147.06 132.897,142.727 126.5,138C 120.175,137.5 113.842,137.334 107.5,137.5C 107.5,103.5 107.5,69.5 107.5,35.5 Z M 453.5,90.5 C 459.737,89.114 466.071,89.2807 472.5,91C 474.004,92.4907 474.837,94.324 475,96.5C 475.667,101.5 475.667,106.5 475,111.5C 464.649,107.648 457.482,100.648 453.5,90.5 Z M 307.5,133.5 C 329.956,132.803 344.456,143.137 351,164.5C 352.865,187.608 342.699,202.441 320.5,209C 303.996,211.246 290.996,205.579 281.5,192C 292.59,177.778 293.257,163.111 283.5,148C 290.185,140.78 298.185,135.947 307.5,133.5 Z M 151.5,231.5 C 162.278,235.111 169.611,242.278 173.5,253C 167.056,253.915 160.723,253.581 154.5,252C 153.107,250.829 152.273,249.329 152,247.5C 151.501,242.177 151.334,236.844 151.5,231.5 Z M 474.5,231.5 C 479.971,250.531 472.971,257.697 453.5,253C 457.352,242.649 464.352,235.482 474.5,231.5 Z"/></g>
<g><path style="opacity:0.904" fill="#000000" d="M 413.5,161.5 C 424.54,160.704 429.04,165.704 427,176.5C 420.623,184.466 414.289,184.466 408,176.5C 405.792,170.065 407.626,165.065 413.5,161.5 Z"/></g>
<g><path style="opacity:0.907" fill="#000000" d="M 309.5,253.5 C 323.443,253.604 327.11,259.77 320.5,272C 307.632,276.64 302.132,272.14 304,258.5C 305.73,256.598 307.563,254.931 309.5,253.5 Z"/></g>
<g><path style="opacity:0.97" fill="#000000" d="M 511.5,336.5 C 511.5,393.167 511.5,449.833 511.5,506.5C 509.833,508.167 508.167,509.833 506.5,511.5C 473.833,511.5 441.167,511.5 408.5,511.5C 406.866,510.028 405.366,508.362 404,506.5C 403.503,504.19 403.337,501.857 403.5,499.5C 335.833,499.667 268.166,499.5 200.5,499C 173.151,495.485 148.817,485.151 127.5,468C 105.361,446.862 83.5281,425.362 62,403.5C 52.7021,390.821 51.0354,377.154 57,362.5C 67.3014,346.394 81.8014,340.894 100.5,346C 104.828,347.829 108.828,350.162 112.5,353C 131.167,371.667 149.833,390.333 168.5,409C 173.668,412.419 179.002,415.585 184.5,418.5C 183.139,394.717 194.139,380.55 217.5,376C 237.833,375.667 258.167,375.333 278.5,375C 311.172,331.959 352.672,320.125 403,339.5C 403.979,336.375 405.813,333.875 408.5,332C 441.167,331.333 473.833,331.333 506.5,332C 508.362,333.366 510.028,334.866 511.5,336.5 Z M 358.5,350.5 C 374.63,350.572 389.463,354.905 403,363.5C 403.5,402.165 403.667,440.832 403.5,479.5C 341.166,479.667 278.832,479.5 216.5,479C 188.415,478.307 163.415,469.307 141.5,452C 118.302,430.469 96.1357,407.969 75,384.5C 73.1667,370.333 79.3333,364.167 93.5,366C 114.441,384.94 134.774,404.606 154.5,425C 170.004,437.245 187.671,444.245 207.5,446C 248.833,446.667 290.167,446.667 331.5,446C 339.8,442.314 341.633,436.48 337,428.5C 335.581,427.54 334.081,426.707 332.5,426C 294.167,425.667 255.833,425.333 217.5,425C 207.796,421.756 204.296,415.256 207,405.5C 209.503,400.835 213.337,398.002 218.5,397C 241.5,396.667 264.5,396.333 287.5,396C 289.96,394.542 292.127,392.709 294,390.5C 309.286,367.029 330.786,353.696 358.5,350.5 Z M 423.5,351.5 C 446.167,351.5 468.833,351.5 491.5,351.5C 491.5,398.167 491.5,444.833 491.5,491.5C 468.833,491.5 446.167,491.5 423.5,491.5C 423.5,444.833 423.5,398.167 423.5,351.5 Z"/></g>
</svg>
