<?xml version="1.0" encoding="UTF-8"?>
<!DOCTYPE svg PUBLIC "-//W3C//DTD SVG 1.1//EN" "http://www.w3.org/Graphics/SVG/1.1/DTD/svg11.dtd">
<svg xmlns="http://www.w3.org/2000/svg" version="1.1" width="512px" height="512px" style="shape-rendering:geometricPrecision; text-rendering:geometricPrecision; image-rendering:optimizeQuality; fill-rule:evenodd; clip-rule:evenodd" xmlns:xlink="http://www.w3.org/1999/xlink">
<g><path style="opacity:0.958" fill="#000000" d="M 60.5,31.5 C 78.5031,31.3334 96.5031,31.5001 114.5,32C 139.557,38.2661 154.557,54.0994 159.5,79.5C 172.171,79.6666 184.838,79.4999 197.5,79C 204.409,71.9419 212.742,69.6086 222.5,72C 225.284,72.8917 227.95,74.0584 230.5,75.5C 231.51,54.9855 242.176,45.8188 262.5,48C 265.779,48.9728 268.779,50.4728 271.5,52.5C 282.167,45.8333 292.833,45.8333 303.5,52.5C 314.167,45.8333 324.833,45.8333 335.5,52.5C 345.183,46.4519 355.183,45.9519 365.5,51C 374.477,58.426 377.81,67.926 375.5,79.5C 381.537,79.8293 387.537,79.4959 393.5,78.5C 410.534,57.5464 432.201,50.713 458.5,58C 482.075,67.9524 494.742,85.7857 496.5,111.5C 494.648,139.169 480.648,157.336 454.5,166C 426.41,171.693 404.91,162.526 390,138.5C 389,129.837 392.833,126.337 401.5,128C 406.148,132.917 410.815,137.917 415.5,143C 435.859,155.378 454.359,152.878 471,135.5C 482.333,119.5 482.333,103.5 471,87.5C 450.576,66.6851 429.91,66.3518 409,86.5C 406.955,89.4233 404.788,92.2567 402.5,95C 393.506,95.4998 384.506,95.6664 375.5,95.5C 375.667,108.504 375.5,121.504 375,134.5C 369.543,148.482 359.376,153.982 344.5,151C 341.221,150.027 338.221,148.527 335.5,146.5C 324.833,153.167 314.167,153.167 303.5,146.5C 296.53,151.196 288.864,152.696 280.5,151C 278.156,149.972 275.823,149.306 273.5,149C 280.22,155.939 284.72,164.105 287,173.5C 287.667,188.833 287.667,204.167 287,219.5C 285.471,222.516 282.971,223.849 279.5,223.5C 276.029,223.849 273.529,222.516 272,219.5C 271.667,207.5 271.333,195.5 271,183.5C 268.491,162.663 256.657,151.829 235.5,151C 233.667,150.5 232.5,149.333 232,147.5C 231.667,134.833 231.333,122.167 231,109.5C 230.907,101.48 227.74,94.9803 221.5,90C 214.73,86.7039 210.23,88.5373 208,95.5C 207.333,113.5 207.333,131.5 208,149.5C 218.333,170.167 228.667,190.833 239,211.5C 239.167,232.167 239.333,252.833 239.5,273.5C 239.656,294.92 239.156,316.253 238,337.5C 234.744,339.429 231.244,339.929 227.5,339C 225.667,338.5 224.5,337.333 224,335.5C 223.667,312.167 223.333,288.833 223,265.5C 207.565,288.456 204.232,313.123 213,339.5C 224.752,366.913 245.252,383.747 274.5,390C 296.516,393.329 316.516,388.496 334.5,375.5C 335.333,320.836 335.833,266.17 336,211.5C 341.377,205.792 346.377,199.792 351,193.5C 353.551,189.065 355.551,184.399 357,179.5C 357.686,173.328 359.019,167.328 361,161.5C 364.256,159.571 367.756,159.071 371.5,160C 373.333,160.5 374.5,161.667 375,163.5C 376.129,185.78 368.462,204.447 352,219.5C 351.333,226.167 351.333,232.833 352,239.5C 366.375,252.579 375.875,268.579 380.5,287.5C 379.263,295.063 374.929,297.563 367.5,295C 364.195,291.105 362.028,286.605 361,281.5C 358.507,275.843 355.507,270.51 352,265.5C 351.333,296.167 351.333,326.833 352,357.5C 360.626,345.232 365.626,331.566 367,316.5C 367.785,314.714 368.951,313.214 370.5,312C 373.5,311.333 376.5,311.333 379.5,312C 381.049,313.214 382.215,314.714 383,316.5C 380.995,350.679 365.495,376.846 336.5,395C 316.864,405.996 295.864,409.996 273.5,407C 227.88,397.713 200.713,370.213 192,324.5C 188.5,290.989 198.834,262.655 223,239.5C 223.667,232.167 223.667,224.833 223,217.5C 212.667,196.833 202.333,176.167 192,155.5C 191.501,151.514 191.334,147.514 191.5,143.5C 180.833,143.5 170.167,143.5 159.5,143.5C 154.557,168.901 139.557,184.734 114.5,191C 96.5,191.667 78.5,191.667 60.5,191C 28.8323,182.461 14.3323,161.961 17,129.5C 17.7504,128.874 18.5838,128.374 19.5,128C 44.8311,127.5 70.1645,127.333 95.5,127.5C 95.3334,112.83 95.5001,98.1629 96,83.5C 96.5,81.6667 97.6667,80.5 99.5,80C 102.167,79.3333 104.833,79.3333 107.5,80C 109.333,80.5 110.5,81.6667 111,83.5C 111.667,102.167 111.667,120.833 111,139.5C 110.626,140.416 110.126,141.25 109.5,142C 84.2561,143.481 58.9228,143.981 33.5,143.5C 38.4376,163.157 51.1043,173.657 71.5,175C 82.1667,175.667 92.8333,175.667 103.5,175C 120.512,173.979 132.678,165.812 140,150.5C 141.47,143.191 143.303,136.024 145.5,129C 160.737,127.532 176.07,127.032 191.5,127.5C 191.5,116.833 191.5,106.167 191.5,95.5C 176.07,95.9682 160.737,95.4682 145.5,94C 143.303,86.9755 141.47,79.8089 140,72.5C 132.678,57.1875 120.512,49.0208 103.5,48C 92.8333,47.3333 82.1667,47.3333 71.5,48C 51.0593,49.2847 38.3926,59.7847 33.5,79.5C 47.504,79.3334 61.504,79.5001 75.5,80C 77.3333,80.5 78.5,81.6667 79,83.5C 79.8166,86.9643 79.4833,90.2976 78,93.5C 77.2496,94.1258 76.4162,94.6258 75.5,95C 56.8333,95.6667 38.1667,95.6667 19.5,95C 17.6667,94.5 16.5,93.3333 16,91.5C 15.3901,59.9549 30.2235,39.9549 60.5,31.5 Z M 252.5,64.5 C 258.326,63.4887 261.826,65.822 263,71.5C 263.667,90.1667 263.667,108.833 263,127.5C 261.134,134.347 256.968,136.18 250.5,133C 249.283,131.352 248.45,129.519 248,127.5C 247.333,108.833 247.333,90.1667 248,71.5C 248.53,68.415 250.03,66.0817 252.5,64.5 Z M 284.5,64.5 C 290.326,63.4887 293.826,65.822 295,71.5C 295.667,90.1667 295.667,108.833 295,127.5C 293.134,134.347 288.968,136.18 282.5,133C 281.283,131.352 280.45,129.519 280,127.5C 279.333,108.833 279.333,90.1667 280,71.5C 280.53,68.415 282.03,66.0817 284.5,64.5 Z M 316.5,64.5 C 322.326,63.4887 325.826,65.822 327,71.5C 327.667,90.1667 327.667,108.833 327,127.5C 325.134,134.347 320.968,136.18 314.5,133C 313.283,131.352 312.45,129.519 312,127.5C 311.333,108.833 311.333,90.1667 312,71.5C 312.53,68.415 314.03,66.0817 316.5,64.5 Z M 348.5,64.5 C 354.326,63.4887 357.826,65.822 359,71.5C 359.667,90.1667 359.667,108.833 359,127.5C 357.134,134.347 352.968,136.18 346.5,133C 345.283,131.352 344.45,129.519 344,127.5C 343.333,108.833 343.333,90.1667 344,71.5C 344.53,68.415 346.03,66.0817 348.5,64.5 Z"/></g>
<g><path style="opacity:0.926" fill="#000000" d="M 432.5,87.5 C 445.727,84.8799 450.06,89.7132 445.5,102C 441.507,103.122 437.674,104.622 434,106.5C 430.833,116.667 434.333,120.167 444.5,117C 446.378,113.326 447.878,109.493 449,105.5C 461.447,100.939 466.114,105.272 463,118.5C 457.543,132.482 447.376,137.982 432.5,135C 418.518,129.543 413.018,119.376 416,104.5C 419.019,96.3156 424.519,90.649 432.5,87.5 Z"/></g>
<g><path style="opacity:0.943" fill="#000000" d="M 176.5,162.5 C 185.887,162.941 189.054,167.608 186,176.5C 174.833,187.667 163.667,198.833 152.5,210C 159.333,216.833 166.167,223.667 173,230.5C 173.5,232 174,233.5 174.5,235C 170.819,242.864 166.985,250.697 163,258.5C 159.732,266.638 157.065,274.971 155,283.5C 153.833,284.667 152.667,285.833 151.5,287C 140.839,287.5 130.172,287.667 119.5,287.5C 119.5,303.5 119.5,319.5 119.5,335.5C 130.172,335.333 140.839,335.5 151.5,336C 152.667,337.167 153.833,338.333 155,339.5C 157.065,348.029 159.732,356.362 163,364.5C 166.985,372.303 170.819,380.136 174.5,388C 174,389.5 173.5,391 173,392.5C 166.167,399.333 159.333,406.167 152.5,413C 163.667,424.167 174.833,435.333 186,446.5C 192.833,439.667 199.667,432.833 206.5,426C 208,425.5 209.5,425 211,424.5C 218.864,428.181 226.697,432.015 234.5,436C 242.638,439.268 250.971,441.935 259.5,444C 260.667,445.167 261.833,446.333 263,447.5C 263.5,458.161 263.667,468.828 263.5,479.5C 272.839,479.334 282.173,479.5 291.5,480C 293.333,480.5 294.5,481.667 295,483.5C 295.817,486.964 295.483,490.298 294,493.5C 293.25,494.126 292.416,494.626 291.5,495C 284.833,495.167 278.167,495.333 271.5,495.5C 264.066,495.633 256.733,495.133 249.5,494C 248.874,493.25 248.374,492.416 248,491.5C 247.832,480.485 247.332,469.485 246.5,458.5C 234.72,454.944 223.387,450.278 212.5,444.5C 205.014,451.485 197.681,458.652 190.5,466C 184.718,467.964 179.885,466.464 176,461.5C 173.667,465.5 171.333,469.5 169,473.5C 166.005,476.265 162.505,477.098 158.5,476C 153.99,473.484 149.49,470.984 145,468.5C 142.357,469.321 140.024,470.654 138,472.5C 137.879,479.246 137.212,485.913 136,492.5C 135.097,493.701 133.931,494.535 132.5,495C 113.833,495.667 95.1667,495.667 76.5,495C 75.3333,493.833 74.1667,492.667 73,491.5C 72.6667,485.167 72.3333,478.833 72,472.5C 69.3241,470.567 66.4908,469.4 63.5,469C 59.5,471.333 55.5,473.667 51.5,476C 47.8823,476.966 44.549,476.466 41.5,474.5C 32.7475,459.997 24.2475,445.33 16,430.5C 15.3333,427.833 15.3333,425.167 16,422.5C 20.8932,418.609 26.0598,415.109 31.5,412C 32.8333,409 32.8333,406 31.5,403C 26.0598,399.891 20.8932,396.391 16,392.5C 15.3333,389.833 15.3333,387.167 16,384.5C 24.3015,368.716 33.4682,353.549 43.5,339C 46.1667,338.333 48.8333,338.333 51.5,339C 56.2528,342.214 61.2528,344.548 66.5,346C 68.2487,344.708 70.082,343.542 72,342.5C 72.3333,336.167 72.6667,329.833 73,323.5C 76.3077,319.673 80.4744,318.506 85.5,320C 87.0488,321.214 88.2155,322.714 89,324.5C 89.9201,334.242 89.5867,343.908 88,353.5C 82.7498,356.541 77.5832,359.708 72.5,363C 70.3611,364.404 68.0278,365.237 65.5,365.5C 60.2141,364.107 55.3808,361.774 51,358.5C 45.4549,367.087 40.2882,375.92 35.5,385C 40.2628,387.798 44.7628,390.964 49,394.5C 49.6667,403.167 49.6667,411.833 49,420.5C 48.6258,421.416 48.1258,422.25 47.5,423C 43.2956,425.264 39.2956,427.764 35.5,430.5C 40.4676,439.297 45.6343,447.964 51,456.5C 55.3808,453.226 60.2141,450.893 65.5,449.5C 72.4166,452.958 79.4166,456.458 86.5,460C 87.8932,461.171 88.7265,462.671 89,464.5C 89.4993,469.489 89.6659,474.489 89.5,479.5C 99.8333,479.5 110.167,479.5 120.5,479.5C 120.334,474.156 120.501,468.823 121,463.5C 121.465,462.069 122.299,460.903 123.5,460C 128.997,457.755 133.997,454.755 138.5,451C 141.366,449.543 144.366,449.21 147.5,450C 151.252,452.293 155.086,454.46 159,456.5C 160.123,453.751 161.623,451.251 163.5,449C 154,439.5 144.5,430 135,420.5C 124.139,439.099 108.639,444.266 88.5,436C 71.3575,423.258 67.8575,407.424 78,388.5C 90.6254,374.485 105.459,371.652 122.5,380C 131.041,385.908 135.875,394.075 137,404.5C 143.015,398.652 148.848,392.652 154.5,386.5C 148.722,375.613 144.056,364.28 140.5,352.5C 129.515,351.668 118.515,351.168 107.5,351C 105.667,350.5 104.5,349.333 104,347.5C 103.333,323.5 103.333,299.5 104,275.5C 104.5,273.667 105.667,272.5 107.5,272C 118.515,271.832 129.515,271.332 140.5,270.5C 144.056,258.72 148.722,247.387 154.5,236.5C 147.848,229.348 141.015,222.348 134,215.5C 131.613,212.224 131.279,208.891 133,205.5C 146.73,190.269 161.23,175.936 176.5,162.5 Z M 99.5,392.5 C 112.799,391.305 119.632,397.305 120,410.5C 115.268,422.302 107.101,425.469 95.5,420C 86.5707,409.26 87.904,400.093 99.5,392.5 Z"/></g>
<g><path style="opacity:0.943" fill="#000000" d="M 393.5,162.5 C 396.794,162.259 399.794,163.092 402.5,165C 416.029,178.195 429.196,191.695 442,205.5C 443.714,208.45 443.714,211.45 442,214.5C 434.652,221.681 427.485,229.014 420.5,236.5C 426.278,247.387 430.944,258.72 434.5,270.5C 445.485,271.332 456.485,271.832 467.5,272C 469.333,272.5 470.5,273.667 471,275.5C 471.667,299.5 471.667,323.5 471,347.5C 470.5,349.333 469.333,350.5 467.5,351C 456.485,351.168 445.485,351.668 434.5,352.5C 430.944,364.28 426.278,375.613 420.5,386.5C 427.485,393.986 434.652,401.319 442,408.5C 443.949,412.312 443.615,415.979 441,419.5C 425.833,434.667 410.667,449.833 395.5,465C 391.979,467.615 388.312,467.949 384.5,466C 377.319,458.652 369.986,451.485 362.5,444.5C 351.613,450.278 340.28,454.944 328.5,458.5C 327.668,469.485 327.168,480.485 327,491.5C 325.471,494.516 322.971,495.849 319.5,495.5C 316.029,495.849 313.529,494.516 312,491.5C 311.333,476.833 311.333,462.167 312,447.5C 313.167,446.333 314.333,445.167 315.5,444C 324.029,441.935 332.362,439.268 340.5,436C 348.303,432.015 356.136,428.181 364,424.5C 365.5,425 367,425.5 368.5,426C 375.333,432.833 382.167,439.667 389,446.5C 400.167,435.333 411.333,424.167 422.5,413C 415.667,406.167 408.833,399.333 402,392.5C 401.399,390.863 400.899,389.197 400.5,387.5C 409.44,372.52 415.94,356.52 420,339.5C 421.167,338.333 422.333,337.167 423.5,336C 434.161,335.5 444.828,335.333 455.5,335.5C 455.5,319.5 455.5,303.5 455.5,287.5C 444.828,287.667 434.161,287.5 423.5,287C 422.333,285.833 421.167,284.667 420,283.5C 418.071,275.713 415.738,268.046 413,260.5C 408.542,251.919 404.375,243.253 400.5,234.5C 400.719,233.062 401.219,231.729 402,230.5C 408.833,223.667 415.667,216.833 422.5,210C 411.333,198.833 400.167,187.667 389,176.5C 385.999,170.157 387.499,165.49 393.5,162.5 Z"/></g>
</svg>
