<?xml version="1.0" standalone="no"?>
<!DOCTYPE svg PUBLIC "-//W3C//DTD SVG 20010904//EN"
 "http://www.w3.org/TR/2001/REC-SVG-20010904/DTD/svg10.dtd">
<svg version="1.0" xmlns="http://www.w3.org/2000/svg"
 width="128.000000pt" height="128.000000pt" viewBox="0 0 128.000000 128.000000"
 preserveAspectRatio="xMidYMid meet">

<g transform="translate(0.000000,128.000000) scale(0.100000,-0.100000)"
fill="#000000" stroke="none">
<path d="M297 1254 c-4 -4 -7 -20 -7 -36 0 -31 -20 -38 -40 -13 -18 22 -43 19
-68 -8 -26 -27 -28 -50 -7 -67 25 -21 17 -39 -18 -42 -31 -3 -32 -4 -32 -53 0
-49 1 -50 33 -53 34 -3 42 -21 17 -42 -22 -18 -19 -43 8 -68 27 -26 50 -28 67
-7 21 25 39 17 42 -17 3 -32 4 -33 53 -33 49 0 50 1 53 33 3 34 21 42 42 17
18 -22 33 -19 63 13 31 32 33 44 12 62 -25 21 -17 39 18 42 31 3 32 4 32 53 0
49 -1 50 -32 53 -35 3 -43 21 -18 42 22 18 19 33 -13 63 -32 31 -44 33 -62 12
-21 -25 -39 -17 -42 18 -3 30 -5 32 -48 35 -25 2 -49 0 -53 -4z m73 -49 c0
-36 42 -55 68 -32 23 21 36 21 52 2 10 -13 9 -19 -5 -35 -26 -29 -10 -74 28
-78 21 -3 27 -9 27 -28 0 -19 -5 -24 -25 -24 -36 0 -55 -42 -32 -68 21 -23 21
-36 2 -52 -13 -10 -19 -9 -35 5 -29 26 -74 10 -78 -28 -3 -21 -9 -27 -27 -27
-18 0 -24 6 -27 27 -4 39 -49 54 -78 28 -19 -17 -22 -18 -37 -2 -16 15 -15 18
2 37 28 31 11 74 -33 78 -26 3 -32 7 -32 28 0 20 5 24 30 24 41 0 62 40 37 68
-21 23 -21 36 -2 52 13 10 19 9 35 -5 29 -26 74 -10 78 28 3 21 9 27 28 27 19
0 24 -5 24 -25z"/>
<path d="M305 1136 c-48 -21 -70 -53 -70 -101 0 -79 77 -131 150 -101 79 33
92 146 22 190 -35 22 -70 26 -102 12z m96 -45 c17 -18 29 -40 29 -56 0 -32
-50 -85 -80 -85 -49 0 -89 38 -89 85 0 76 85 110 140 56z"/>
<path d="M973 1038 c-30 -22 -43 -39 -43 -55 0 -33 -26 -40 -48 -13 -27 34
-62 20 -62 -25 0 -40 -15 -53 -29 -26 -6 10 -18 22 -28 25 -23 9 -53 -26 -46
-53 7 -28 -16 -37 -33 -12 -29 41 -81 16 -68 -33 8 -32 -15 -36 -34 -6 -25 40
-80 13 -68 -34 7 -28 -12 -39 -49 -30 -23 6 -75 -15 -107 -43 -44 -39 -25
-122 32 -142 25 -8 41 -6 86 10 29 11 54 27 54 34 0 8 8 18 17 24 13 7 23 3
40 -15 19 -21 26 -23 44 -14 16 9 20 19 17 41 -6 36 19 48 39 19 29 -41 79
-11 66 38 -7 28 17 30 35 2 25 -41 78 -11 66 37 -4 13 0 22 10 26 9 4 16 2 16
-3 0 -11 29 -40 40 -40 20 0 41 34 36 56 -8 30 10 40 33 19 43 -38 171 11 171
65 0 12 9 24 23 29 13 5 31 17 40 26 23 22 22 78 -1 98 -20 18 -78 22 -101 8
-10 -6 -22 -5 -35 5 -32 22 -67 16 -113 -18z m124 -48 c28 -57 39 -108 25
-122 -6 -6 -20 16 -41 67 -48 114 -46 107 -25 103 10 -2 29 -23 41 -48z m105
33 c23 -21 23 -38 -2 -63 -30 -30 -54 -25 -68 13 -16 44 -16 46 11 57 32 13
38 12 59 -7z m-149 -91 l35 -82 -23 -6 c-43 -11 -56 0 -86 71 l-30 70 28 22
c15 12 31 19 34 15 4 -4 23 -44 42 -90z m-162 -38 c35 -79 45 -114 31 -114 -7
0 -45 79 -79 168 -3 6 0 12 6 12 7 0 25 -30 42 -66z m66 7 c11 -31 8 -41 -12
-41 -14 0 -38 48 -30 61 12 18 31 9 42 -20z m-161 -65 c36 -85 40 -100 23 -94
-6 2 -24 35 -40 73 -40 94 -43 108 -29 103 6 -2 27 -39 46 -82z m60 -12 c-9
-23 -23 -16 -35 18 -9 24 -8 33 1 39 15 10 42 -36 34 -57z m-161 -33 c32 -77
39 -109 16 -85 -17 17 -71 156 -65 166 8 13 8 13 49 -81z m55 23 c17 -45 -9
-62 -28 -19 -16 34 -15 45 3 45 9 0 20 -12 25 -26z m-162 -56 c39 -90 39 -92
27 -96 -5 -2 -24 31 -42 74 -35 84 -38 94 -24 94 4 0 22 -33 39 -72z m60 17
c16 -34 15 -45 -3 -45 -14 0 -35 37 -35 61 0 19 27 8 38 -16z m-100 -47 c9
-25 9 -34 -1 -40 -22 -14 -35 -8 -45 22 -9 24 -8 31 6 40 25 14 26 13 40 -22z
m-72 -25 c11 -27 21 -51 22 -56 6 -13 -69 -39 -95 -32 -28 7 -48 45 -40 77 6
22 55 56 83 57 6 1 20 -20 30 -46z"/>
<path d="M1152 1021 c-8 -4 -12 -19 -10 -32 4 -33 53 -40 63 -9 11 36 -22 61
-53 41z m28 -31 c0 -5 -2 -10 -4 -10 -3 0 -8 5 -11 10 -3 6 -1 10 4 10 6 0 11
-4 11 -10z"/>
<path d="M396 707 c-22 -16 -18 -55 7 -71 39 -24 79 44 41 71 -10 7 -21 13
-24 13 -3 0 -14 -6 -24 -13z m36 -32 c0 -5 -5 -11 -11 -13 -6 -2 -11 4 -11 13
0 9 5 15 11 13 6 -2 11 -8 11 -13z"/>
<path d="M115 526 c-44 -17 -89 -35 -99 -39 -14 -6 -16 -11 -9 -18 8 -8 28 -7
68 1 31 6 58 10 61 8 2 -3 -7 -20 -21 -38 -37 -50 -33 -60 25 -60 l50 0 0
-168 c0 -117 4 -172 12 -180 17 -17 859 -17 876 0 8 8 12 63 12 180 l0 168 50
0 c58 0 62 8 24 64 l-26 38 43 -8 c118 -21 117 -1 -1 47 l-95 38 -445 0 -445
0 -80 -33z m995 -53 l41 -58 -255 -3 c-141 -1 -371 -1 -512 0 l-255 3 41 58
41 57 429 0 429 0 41 -57z m-50 -258 l0 -165 -420 0 -420 0 0 165 0 165 420 0
420 0 0 -165z"/>
<path d="M314 297 c-3 -8 -4 -41 -2 -73 l3 -59 325 0 325 0 0 70 0 70 -323 3
c-266 2 -323 0 -328 -11z m626 -62 l0 -45 -300 0 -300 0 0 45 0 45 300 0 300
0 0 -45z"/>
</g>
</svg>
