<?xml version="1.0" encoding="UTF-8"?>
<!DOCTYPE svg PUBLIC "-//W3C//DTD SVG 1.1//EN" "http://www.w3.org/Graphics/SVG/1.1/DTD/svg11.dtd">
<svg xmlns="http://www.w3.org/2000/svg" version="1.1" width="512px" height="512px" style="shape-rendering:geometricPrecision; text-rendering:geometricPrecision; image-rendering:optimizeQuality; fill-rule:evenodd; clip-rule:evenodd" xmlns:xlink="http://www.w3.org/1999/xlink">
<g><path style="opacity:0.947" fill="#000000" d="M 39.5,-0.5 C 46.1667,-0.5 52.8333,-0.5 59.5,-0.5C 93.7251,10.94 106.225,34.2733 97,69.5C 85.0201,94.0734 65.5201,104.24 38.5,100C 17.8848,94.219 4.88482,81.0523 -0.5,60.5C -0.5,53.5 -0.5,46.5 -0.5,39.5C 5.83333,19.1667 19.1667,5.83333 39.5,-0.5 Z M 44.5,21.5 C 68.5881,22.0923 79.4215,34.4257 77,58.5C 70.989,74.4282 59.489,80.9282 42.5,78C 27.1383,72.1183 20.305,60.9517 22,44.5C 25.684,32.9837 33.184,25.3171 44.5,21.5 Z"/></g>
<g><path style="opacity:0.97" fill="#000000" d="M 135.5,-0.5 C 169.5,-0.5 203.5,-0.5 237.5,-0.5C 237.5,33.5 237.5,67.5 237.5,101.5C 203.5,101.5 169.5,101.5 135.5,101.5C 135.5,67.5 135.5,33.5 135.5,-0.5 Z M 157.5,21.5 C 176.833,21.5 196.167,21.5 215.5,21.5C 215.5,40.8333 215.5,60.1667 215.5,79.5C 196.167,79.5 176.833,79.5 157.5,79.5C 157.5,60.1667 157.5,40.8333 157.5,21.5 Z"/></g>
<g><path style="opacity:0.97" fill="#000000" d="M 409.5,-0.5 C 443.5,-0.5 477.5,-0.5 511.5,-0.5C 511.5,33.5 511.5,67.5 511.5,101.5C 477.5,101.5 443.5,101.5 409.5,101.5C 409.5,67.5 409.5,33.5 409.5,-0.5 Z M 431.5,21.5 C 450.833,21.5 470.167,21.5 489.5,21.5C 489.5,40.8333 489.5,60.1667 489.5,79.5C 470.167,79.5 450.833,79.5 431.5,79.5C 431.5,60.1667 431.5,40.8333 431.5,21.5 Z"/></g>
<g><path style="opacity:0.946" fill="#000000" d="M 313.5,0.5 C 343.599,-2.55086 363.433,10.1158 373,38.5C 378.211,69.9252 365.711,90.4252 335.5,100C 303.691,104.35 283.191,91.183 274,60.5C 270.941,29.5771 284.108,9.57714 313.5,0.5 Z M 318.5,22.5 C 338.168,21.9977 349.501,31.4977 352.5,51C 350.761,64.1659 343.761,73.1659 331.5,78C 312.911,80.964 301.078,73.464 296,55.5C 295.062,38.6247 302.562,27.6247 318.5,22.5 Z"/></g>
<g><path style="opacity:0.97" fill="#000000" d="M -0.5,135.5 C 33.5,135.5 67.5,135.5 101.5,135.5C 101.5,169.5 101.5,203.5 101.5,237.5C 67.5,237.5 33.5,237.5 -0.5,237.5C -0.5,203.5 -0.5,169.5 -0.5,135.5 Z M 21.5,157.5 C 40.8333,157.5 60.1667,157.5 79.5,157.5C 79.5,176.833 79.5,196.167 79.5,215.5C 60.1667,215.5 40.8333,215.5 21.5,215.5C 21.5,196.167 21.5,176.833 21.5,157.5 Z"/></g>
<g><path style="opacity:0.97" fill="#000000" d="M 273.5,135.5 C 307.5,135.5 341.5,135.5 375.5,135.5C 375.5,169.5 375.5,203.5 375.5,237.5C 341.5,237.5 307.5,237.5 273.5,237.5C 273.5,203.5 273.5,169.5 273.5,135.5 Z M 295.5,157.5 C 314.833,157.5 334.167,157.5 353.5,157.5C 353.5,176.833 353.5,196.167 353.5,215.5C 334.167,215.5 314.833,215.5 295.5,215.5C 295.5,196.167 295.5,176.833 295.5,157.5 Z"/></g>
<g><path style="opacity:0.946" fill="#000000" d="M 180.5,136.5 C 209.969,135.641 228.803,149.307 237,177.5C 239.717,208.438 226.217,228.272 196.5,237C 173.434,240.048 155.601,231.881 143,212.5C 133.104,192.146 134.771,172.812 148,154.5C 156.951,144.944 167.785,138.944 180.5,136.5 Z M 185.5,158.5 C 209.036,161.612 218.202,174.612 213,197.5C 202.871,215.573 188.704,219.739 170.5,210C 157.51,197.907 155.676,184.407 165,169.5C 170.587,163.293 177.421,159.626 185.5,158.5 Z"/></g>
<g><path style="opacity:0.947" fill="#000000" d="M 511.5,176.5 C 511.5,183.167 511.5,189.833 511.5,196.5C 502.462,226.012 482.462,239.512 451.5,237C 425.778,230.273 412.111,213.607 410.5,187C 414.258,152.955 433.258,136.288 467.5,137C 490.233,141.235 504.9,154.402 511.5,176.5 Z M 459.5,158.5 C 481.758,161.236 491.258,173.569 488,195.5C 481.012,211.076 469.179,217.243 452.5,214C 435.061,205.943 429.561,192.777 436,174.5C 441.316,165.332 449.149,159.999 459.5,158.5 Z"/></g>
<g><path style="opacity:0.97" fill="#000000" d="M 135.5,273.5 C 169.5,273.5 203.5,273.5 237.5,273.5C 237.5,307.5 237.5,341.5 237.5,375.5C 203.5,375.5 169.5,375.5 135.5,375.5C 135.5,341.5 135.5,307.5 135.5,273.5 Z M 157.5,295.5 C 176.833,295.5 196.167,295.5 215.5,295.5C 215.5,314.833 215.5,334.167 215.5,353.5C 196.167,353.5 176.833,353.5 157.5,353.5C 157.5,334.167 157.5,314.833 157.5,295.5 Z"/></g>
<g><path style="opacity:0.97" fill="#000000" d="M 511.5,273.5 C 511.5,307.5 511.5,341.5 511.5,375.5C 477.5,375.5 443.5,375.5 409.5,375.5C 409.5,341.5 409.5,307.5 409.5,273.5C 443.5,273.5 477.5,273.5 511.5,273.5 Z M 431.5,295.5 C 450.833,295.5 470.167,295.5 489.5,295.5C 489.5,314.833 489.5,334.167 489.5,353.5C 470.167,353.5 450.833,353.5 431.5,353.5C 431.5,334.167 431.5,314.833 431.5,295.5 Z"/></g>
<g><path style="opacity:0.947" fill="#000000" d="M -0.5,335.5 C -0.5,328.5 -0.5,321.5 -0.5,314.5C 8.29303,285.417 27.9597,272.251 58.5,275C 85.3803,281.565 99.3803,298.732 100.5,326.5C 99.7475,345.178 91.4141,359.344 75.5,369C 46.4821,381.708 22.9821,375.208 5,349.5C 2.84209,344.841 1.00876,340.175 -0.5,335.5 Z M 44.5,296.5 C 68.1211,296.954 78.9544,308.954 77,332.5C 70.5844,348.792 58.7511,355.292 41.5,352C 22.1285,343.08 16.9618,328.913 26,309.5C 30.6892,302.964 36.8559,298.631 44.5,296.5 Z"/></g>
<g><path style="opacity:0.947" fill="#000000" d="M 314.5,274.5 C 344.207,271.754 363.707,284.421 373,312.5C 377.948,334.326 371.782,352.16 354.5,366C 327.85,381.308 304.017,377.808 283,355.5C 270.711,335.685 270.378,315.685 282,295.5C 290.377,284.569 301.211,277.569 314.5,274.5 Z M 318.5,296.5 C 338.177,296.009 349.511,305.509 352.5,325C 350.337,341.829 340.837,351.329 324,353.5C 304.345,350.523 295.012,339.19 296,319.5C 299.006,307.328 306.506,299.661 318.5,296.5 Z"/></g>
<g><path style="opacity:0.97" fill="#000000" d="M -0.5,409.5 C 33.5,409.5 67.5,409.5 101.5,409.5C 101.5,443.5 101.5,477.5 101.5,511.5C 67.5,511.5 33.5,511.5 -0.5,511.5C -0.5,477.5 -0.5,443.5 -0.5,409.5 Z M 21.5,431.5 C 40.8333,431.5 60.1667,431.5 79.5,431.5C 79.5,450.833 79.5,470.167 79.5,489.5C 60.1667,489.5 40.8333,489.5 21.5,489.5C 21.5,470.167 21.5,450.833 21.5,431.5 Z"/></g>
<g><path style="opacity:0.97" fill="#000000" d="M 375.5,511.5 C 341.5,511.5 307.5,511.5 273.5,511.5C 273.5,477.5 273.5,443.5 273.5,409.5C 307.5,409.5 341.5,409.5 375.5,409.5C 375.5,443.5 375.5,477.5 375.5,511.5 Z M 295.5,431.5 C 314.833,431.5 334.167,431.5 353.5,431.5C 353.5,450.833 353.5,470.167 353.5,489.5C 334.167,489.5 314.833,489.5 295.5,489.5C 295.5,470.167 295.5,450.833 295.5,431.5 Z"/></g>
<g><path style="opacity:0.947" fill="#000000" d="M 196.5,511.5 C 189.833,511.5 183.167,511.5 176.5,511.5C 143.31,499.792 131.143,476.792 140,442.5C 153.943,415.177 175.776,405.677 205.5,414C 233.751,428.013 243.251,450.18 234,480.5C 226.41,496.935 213.91,507.269 196.5,511.5 Z M 180.5,433.5 C 198.69,431.334 210.19,439 215,456.5C 216.059,473.204 208.559,484.037 192.5,489C 173.039,490.051 161.706,480.884 158.5,461.5C 160.134,447.514 167.467,438.181 180.5,433.5 Z"/></g>
<g><path style="opacity:0.946" fill="#000000" d="M 511.5,451.5 C 511.5,458.167 511.5,464.833 511.5,471.5C 505.175,491.825 491.842,505.158 471.5,511.5C 464.833,511.5 458.167,511.5 451.5,511.5C 420.939,502.066 407.772,481.4 412,449.5C 419.474,425.206 435.974,412.206 461.5,410.5C 487.843,412.52 504.509,426.187 511.5,451.5 Z M 454.5,433.5 C 472.128,431.39 483.628,438.723 489,455.5C 490.371,472.583 482.871,483.75 466.5,489C 450.489,490.409 439.655,483.576 434,468.5C 431.625,451.229 438.458,439.562 454.5,433.5 Z"/></g>
</svg>
